<?xml version="1.0" encoding="UTF-8"?>
<svg id="Layer_1" data-name="Layer 1" xmlns="http://www.w3.org/2000/svg" version="1.1" viewBox="0 0 100 100">
  <defs>
    <style>
      .cls-1 {
        fill: #c2c0c9;
      }

      .cls-1, .cls-2, .cls-3, .cls-4, .cls-5, .cls-6, .cls-7, .cls-8, .cls-9, .cls-10, .cls-11, .cls-12, .cls-13 {
        stroke-width: 0px;
      }

      .cls-1, .cls-4, .cls-9, .cls-14 {
        isolation: isolate;
      }

      .cls-1, .cls-9 {
        mix-blend-mode: multiply;
      }

      .cls-2 {
        fill: #bfc1bf;
      }

      .cls-3 {
        fill: #777db0;
      }

      .cls-4 {
        mix-blend-mode: screen;
      }

      .cls-4, .cls-12 {
        fill: #25383f;
      }

      .cls-5 {
        fill: #3b4e57;
      }

      .cls-6 {
        fill: #838bb7;
      }

      .cls-7 {
        fill: #777db1;
      }

      .cls-8 {
        fill: #dbdddb;
      }

      .cls-9 {
        fill: #e6e7e7;
      }

      .cls-10 {
        fill: #9887af;
      }

      .cls-11 {
        fill: #627688;
      }

      .cls-15 {
        display: none;
      }

      .cls-13 {
        fill: #b0b0b0;
      }
    </style>
  </defs>
  <g class="cls-14">
    <g id="Avatar2">
      <g>
        <path class="cls-2" d="M64,86.8h-27.8v-38.5c0-9.9,2-19.8,5.7-28.9l4.6-11.2c1.3-3.1,5.8-3.1,7.1,0l4.6,11.2c3.8,9.2,5.7,19,5.7,28.9v38.5h.1Z"/>
        <path class="cls-2" d="M92.3,78h-8.3v-11.3c0-2.3,1.9-4.2,4.2-4.2h0c2.3,0,4.2,1.9,4.2,4.2v11.3h0Z"/>
        <rect class="cls-11" x="36.1" y="58.7" width="27.8" height="1.6"/>
        <rect class="cls-13" x="38.3" y="62.6" width="23.5" height="9.1"/>
        <rect class="cls-5" x="39.7" y="86.8" width="20.8" height="4.8"/>
        <polygon class="cls-7" points="84 75.1 64 75.1 64 55.8 84 68.4 84 75.1"/>
        <polygon class="cls-6" points="64 55.8 64 58.7 84 71.3 84 68.4 64 55.8"/>
        <polygon class="cls-7" points="16.1 75.1 36.1 75.1 36.1 55.8 16.1 68.4 16.1 75.1"/>
        <rect class="cls-5" x="85.1" y="78" width="6.2" height="2"/>
        <rect class="cls-11" x="84" y="70.1" width="8.3" height="1.6"/>
        <rect class="cls-11" x="84" y="73.5" width="8.3" height="1.6"/>
        <path class="cls-2" d="M7.8,78h8.3v-11.3c0-2.3-1.9-4.2-4.2-4.2h0c-2.3,0-4.2,1.9-4.2,4.2v11.3h0Z"/>
        <rect class="cls-5" x="8.9" y="78" width="6.2" height="2"/>
        <rect class="cls-11" x="7.8" y="70.1" width="8.3" height="1.6"/>
        <rect class="cls-11" x="7.8" y="73.5" width="8.3" height="1.6"/>
        <path class="cls-1" d="M50.1,90.8c3.5,0,7-.5,10.4.5v-4.5h3.5v-38.5c0-9.9-2-19.8-5.7-28.9l-4.6-11.2c-.6-1.6-2.1-2.4-3.5-2.4v85h-.1Z"/>
        <polygon class="cls-6" points="36.1 55.8 36.1 58.7 16.1 71.3 16.1 68.4 36.1 55.8"/>
        <g>
          <path class="cls-5" d="M50.1,48.7c-5.2,0-9.5-4.3-9.5-9.5s4.3-9.5,9.5-9.5,9.5,4.3,9.5,9.5-4.3,9.5-9.5,9.5Z"/>
          <circle class="cls-12" cx="50.1" cy="39.2" r="7.8"/>
          <path class="cls-4" d="M48.5,36.8c0,1.1-.9,2.1-2.1,2.1s-2.1-.9-2.1-2.1.9-2.1,2.1-2.1,2.1.9,2.1,2.1Z"/>
        </g>
      </g>
    </g>
    <g id="Avatar1" class="cls-15">
      <g>
        <rect class="cls-5" x="37.3" y="90.9" width="19.3" height="3.3" transform="translate(-1 .5) rotate(-.6)"/>
        <path class="cls-8" d="M60.8,90.8l-27.2.3-.6-55c0-10.9,2.5-21.6,7.6-31.2h0c2.4-4.6,9-4.7,11.5,0h0c5.3,9.5,8.1,20.2,8.2,31l.6,55h0c0-.1,0-.1,0-.1Z"/>
        <rect class="cls-11" x="33.1" y="51.3" width="27.2" height="2.2" transform="translate(-.5 .5) rotate(-.6)"/>
        <rect class="cls-11" x="33.2" y="61.5" width="27.2" height="2.2" transform="translate(-.7 .5) rotate(-.6)"/>
        <rect class="cls-11" x="33.2" y="66.7" width="27.2" height="2.2" transform="translate(-.7 .5) rotate(-.6)"/>
        <path class="cls-11" d="M46.8,58.6c-3.4,0-6.3-2.7-6.3-6.2s2.7-6.3,6.2-6.3,6.3,2.7,6.3,6.2-2.7,6.3-6.2,6.3h0Z"/>
        <circle class="cls-10" cx="46.8" cy="52.4" r="4.5"/>
        <path class="cls-3" d="M51,97.2h-7.5l1.4-30c0-1,.9-1.9,2-1.9h0c1,0,1.9.8,2,1.8l2.1,30h0Z"/>
        <path class="cls-3" d="M60.5,65.2h0l.3,31.9h6l-3-29c-.2-1.7-1.6-3-3.3-2.9h0Z"/>
        <path class="cls-3" d="M33.3,65.5h0l.3,31.9h-6l2.4-28.9c.1-1.7,1.5-3,3.2-3h.1Z"/>
        <path class="cls-1" d="M52.1,4.8h0c-1.3-2.3-3.5-3.4-5.8-3.4l.9,93.9c.4,0,.7.2,1,.4,1.6-1.5,3.3-2.9,5.2-4,1.4-.8,2.7-.5,3.4.4v-1.3h3.9l-.6-55c0-10.9-2.9-21.5-8.2-31,0,0,.2,0,.2,0Z"/>
        <g>
          <path class="cls-5" d="M46.7,41.6c-5,0-9.1-4-9.2-9,0-5,4-9.1,9-9.2,5,0,9.1,4,9.2,9,0,5-4,9.1-9,9.2h0Z"/>
          <circle class="cls-12" cx="46.6" cy="32.5" r="7.4"/>
          <path class="cls-4" d="M45,30.2c0,1.1-.9,2-2,2s-2-.9-2-2,.9-2,2-2,2,.9,2,2Z"/>
        </g>
      </g>
    </g>
    <g id="Avatar3" class="cls-15">
      <g>
        <path class="cls-2" d="M62.2,83.4h-27.7v-39.9c0-11,2.4-21.8,7-31.8l3.5-7.6c1.3-2.9,5.5-2.9,6.8,0l3.5,7.6c4.6,10,7,20.8,7,31.8v39.9h0Z"/>
        <g>
          <rect class="cls-11" x="34.5" y="44.2" width="27.7" height="1.6"/>
          <path class="cls-11" d="M34.8,37.4v1.6h27.4v-1.6s-27.4,0-27.4,0Z"/>
        </g>
        <rect class="cls-11" x="34.5" y="54.9" width="27.7" height="1.6"/>
        <rect class="cls-13" x="36" y="58.2" width="24.8" height="13.1"/>
        <rect class="cls-5" x="38.5" y="83.4" width="19.7" height="4.4"/>
        <rect class="cls-5" x="44.8" y="96.5" width="7.2" height="2.2"/>
        <rect class="cls-5" x="72.7" y="82.7" width="7.2" height="2.2"/>
        <path class="cls-7" d="M53,96.4h-9.2l3-30.8c0-.8.8-1.5,1.6-1.5h0c.9,0,1.6.6,1.6,1.5l3,30.8h0Z"/>
        <polygon class="cls-7" points="72.1 79.7 62.2 79.7 62.2 58.2 72.1 74 72.1 79.7"/>
        <path class="cls-2" d="M76.3,58.2h0c-2.4,0-4.3,1.9-4.3,4.3v20.3h8.5v-20.3c0-2.4-1.9-4.3-4.3-4.3h.1Z"/>
        <rect class="cls-11" x="72.1" y="67.3" width="8.5" height="1.6"/>
        <rect class="cls-11" x="72.1" y="70.9" width="8.5" height="1.6"/>
        <rect class="cls-5" x="16.8" y="82.7" width="7.2" height="2.2"/>
        <polygon class="cls-7" points="24.7 79.7 34.5 79.7 34.5 58.2 24.7 74 24.7 79.7"/>
        <path class="cls-2" d="M20.4,58.2h0c2.4,0,4.3,1.9,4.3,4.3v20.3h-8.5v-20.3c0-2.4,1.9-4.3,4.3-4.3h-.1Z"/>
        <rect class="cls-11" x="16.1" y="67.3" width="8.5" height="1.6"/>
        <rect class="cls-11" x="16.1" y="70.9" width="8.5" height="1.6"/>
        <path class="cls-1" d="M48.4,96.8h1.3c-.2-.3-.4-.5-.6-.7-.4-.4.2-1.1.7-.7.2.2.5.4.7.6s.5.4.7.6c.2,0,.4-.3.5-.4.4-.3.9-.4,1.4-.2l-.8-8.1h6v-4.4h4v-39.9c0-11-2.4-21.8-7-31.8l-3.5-7.6c-.7-1.5-2-2.2-3.4-2.2v94.8h0Z"/>
        <g>
          <path class="cls-5" d="M48.4,50.1c-4.9,0-8.9-4-8.9-8.9s4-8.9,8.9-8.9,8.9,4,8.9,8.9-4,8.9-8.9,8.9h0Z"/>
          <circle class="cls-12" cx="48.4" cy="41.2" r="7.3"/>
          <circle class="cls-4" cx="44.9" cy="38.9" r="1.9"/>
        </g>
      </g>
    </g>
    <g id="Avatar_4" data-name="Avatar 4" class="cls-15">
      <g>
        <path class="cls-2" d="M49.6,88.7h0c-7.4,0-13.4-6-13.4-13.4V17.9c0-2.1,1-4.1,2.7-5.4l6.7-5c2.4-1.8,5.7-1.8,8,0l6.7,5c1.7,1.3,2.7,3.3,2.7,5.4v57.3c0,7.4-6,13.4-13.4,13.4h0Z"/>
        <path class="cls-11" d="M56.3,97.4h-13.4v-12.8c0-3.7,3-6.7,6.7-6.7h0c3.7,0,6.7,3,6.7,6.7,0,0,0,12.8,0,12.8Z"/>
        <rect class="cls-2" x="42.9" y="88.4" width="13.4" height="1.5"/>
        <rect class="cls-2" x="42.9" y="84.9" width="13.4" height="1.5"/>
        <rect class="cls-11" x="36.1" y="56.1" width="26.9" height="1.5"/>
        <rect class="cls-13" x="37.9" y="60.5" width="23.4" height="5.5"/>
        <rect class="cls-11" x="36.1" y="50.6" width="26.9" height="1.5"/>
        <rect class="cls-11" x="36.1" y="31.5" width="26.9" height="1.5"/>
        <polygon class="cls-7" points="76.9 92.2 63 92.2 63 25.6 76.9 92.2"/>
        <rect class="cls-5" x="65.2" y="92.2" width="9.6" height="2.8"/>
        <polygon class="cls-7" points="22.2 92.2 36.1 92.2 36.1 25.6 22.2 92.2"/>
        <rect class="cls-5" x="24.4" y="92.2" width="9.6" height="2.8"/>
        <path class="cls-1" d="M49.6,97.3h1.3c1.8,0,3.6-.2,5.4,0v-10.1c4-2.3,6.7-6.7,6.7-11.6V18.1c0-2.1-1-4.1-2.7-5.4l-6.7-5c-1.2-.9-2.6-1.3-4-1.3v90.9Z"/>
        <g>
          <path class="cls-5" d="M49.6,41.6c-5.2,0-9.4-4.2-9.4-9.4s4.2-9.4,9.4-9.4,9.4,4.2,9.4,9.4-4.2,9.4-9.4,9.4Z"/>
          <circle class="cls-12" cx="49.6" cy="32.2" r="7.7"/>
          <path class="cls-4" d="M48,29.8c0,1.1-.9,2-2,2s-2-.9-2-2,.9-2,2-2,2,.9,2,2Z"/>
        </g>
      </g>
    </g>
    <g id="Avatar_5" data-name="Avatar 5" class="cls-15">
      <g>
        <path class="cls-2" d="M63.7,61.2l-14.4,24.1-14.4-24.1V17c0-1.8.7-3.5,1.9-4.8l7.2-7.9c2.9-3.2,7.8-3.2,10.7,0l7.2,7.9c1.2,1.3,1.9,3.1,1.9,4.8v44.2h-.1Z"/>
        <path class="cls-7" d="M51.5,84.2h-4.3v-25c0-1.2,1-2.1,2.1-2.1h0c1.2,0,2.1,1,2.1,2.1v25h.1Z"/>
        <path class="cls-7" d="M63.7,61.2s11.5,7.3,15.6,25.9c1,4.4-3.9,7.7-7.7,5.2-5.3-3.6-12.8-7-22.3-7l14.4-24.1h0Z"/>
        <path class="cls-7" d="M34.9,61.2s-11.5,7.3-15.6,25.9c-1,4.4,3.9,7.7,7.7,5.2,5.3-3.6,12.8-7,22.3-7l-14.4-24.1Z"/>
        <path class="cls-11" d="M56.5,97.8h-14.4v-13.7c0-4,3.2-7.2,7.2-7.2h0c4,0,7.2,3.2,7.2,7.2v13.7Z"/>
        <rect class="cls-2" x="42.1" y="88.2" width="14.4" height="1.6"/>
        <rect class="cls-2" x="42.1" y="84.5" width="14.4" height="1.6"/>
        <rect class="cls-11" x="34.9" y="46.6" width="28.8" height="2.3"/>
        <rect class="cls-11" x="34.9" y="39.5" width="28.8" height="2.3"/>
        <path class="cls-9" d="M79.3,87.1c-4-18.5-15.6-25.9-15.6-25.9l3.6,28.5c1.6.8,3,1.7,4.3,2.6,3.7,2.5,8.5-.9,7.6-5.2h0Z"/>
        <path class="cls-9" d="M19.4,87.1c4-18.5,15.6-25.9,15.6-25.9l-3.6,28.5c-1.6.8-3,1.7-4.3,2.6-3.7,2.5-8.5-.9-7.6-5.2h0Z"/>
        <path class="cls-1" d="M49.3,97.4h7.2v-13.2c0-2.4-1.2-4.5-3-5.8l10.2-17.1V16.9c0-1.8-.7-3.5-1.9-4.8l-7.2-7.9c-1.4-1.6-3.4-2.4-5.3-2.4v95.6Z"/>
        <g>
          <path class="cls-5" d="M49.3,35.9c-5.5,0-9.9-4.5-9.9-9.9s4.5-9.9,9.9-9.9,9.9,4.5,9.9,9.9-4.5,9.9-9.9,9.9Z"/>
          <circle class="cls-12" cx="49.3" cy="25.9" r="8.1"/>
          <circle class="cls-4" cx="45.5" cy="23.4" r="2.2"/>
        </g>
      </g>
    </g>
    <g id="Avatar6" class="cls-15">
      <g>
        <path class="cls-7" d="M77.7,81.6h-16v-38h2.1l15.8,35c.6,1.4-.4,2.9-1.9,2.9h0Z"/>
        <path class="cls-7" d="M29.8,81.6h16v-38h-2.1l-15.8,35c-.6,1.4.4,2.9,1.9,2.9h0Z"/>
        <path class="cls-2" d="M62.9,91.8h-18.3l-2.1-40.9c-.6-10.7.6-21.5,3.5-31.8l3.7-13.2c1.1-4.1,6.9-4.1,8.1,0l3.7,13.2c2.9,10.3,4.1,21.1,3.5,31.8l-2.1,40.9h0Z"/>
        <g>
          <path class="cls-11" d="M65.2,45.1v-2.2h-22.8v2.2h22.8Z"/>
          <path class="cls-11" d="M42.8,36.6c0,.8,0,1.5-.2,2.2h22.4c0-.8,0-1.5-.2-2.2h-22Z"/>
        </g>
        <rect class="cls-5" x="47.6" y="91.8" width="12.2" height="3.7"/>
        <path class="cls-7" d="M55.8,95.5h-4.1v-24.2c0-1.1.9-2.1,2.1-2.1h0c1.1,0,2.1.9,2.1,2.1v24.2h0Z"/>
        <polygon class="cls-13" points="62.1 62.3 45.4 62.3 45 53.8 62.5 53.8 62.1 62.3"/>
        <path class="cls-1" d="M53.8,94.6c.6,0,1.1,0,1.7.2,1.5.2,2.9.2,4.4.3v-3.2h3l2.1-40.9c.6-10.7-.6-21.5-3.5-31.8l-3.7-13.2c-.6-2-2.3-3.1-4-3.1v91.7Z"/>
        <g>
          <path class="cls-5" d="M53.8,48.6c-4.2,0-7.6-3.4-7.6-7.6s3.4-7.6,7.6-7.6,7.6,3.4,7.6,7.6-3.4,7.6-7.6,7.6Z"/>
          <circle class="cls-12" cx="53.8" cy="41.1" r="6.2"/>
          <path class="cls-4" d="M52.5,39.1c0,.9-.7,1.7-1.7,1.7s-1.7-.7-1.7-1.7.7-1.7,1.7-1.7,1.7.7,1.7,1.7Z"/>
        </g>
      </g>
    </g>
  </g>
</svg>