<?xml version="1.0" encoding="UTF-8"?>
<svg id="Layer_1" data-name="Layer 1" xmlns="http://www.w3.org/2000/svg" version="1.1" viewBox="0 0 100 100">
  <defs>
    <style>
      .cls-1 {
        fill: #c2c0c9;
      }

      .cls-1, .cls-2, .cls-3, .cls-4, .cls-5, .cls-6, .cls-7, .cls-8, .cls-9, .cls-10, .cls-11, .cls-12, .cls-13 {
        stroke-width: 0px;
      }

      .cls-1, .cls-4, .cls-9, .cls-14 {
        isolation: isolate;
      }

      .cls-1, .cls-9 {
        mix-blend-mode: multiply;
      }

      .cls-2 {
        fill: #bfc1bf;
      }

      .cls-3 {
        fill: #777db0;
      }

      .cls-4 {
        mix-blend-mode: screen;
      }

      .cls-4, .cls-12 {
        fill: #25383f;
      }

      .cls-5 {
        fill: #3b4e57;
      }

      .cls-6 {
        fill: #838bb7;
      }

      .cls-7 {
        fill: #777db1;
      }

      .cls-8 {
        fill: #dbdddb;
      }

      .cls-9 {
        fill: #e6e7e7;
      }

      .cls-10 {
        fill: #9887af;
      }

      .cls-11 {
        fill: #627688;
      }

      .cls-15 {
        display: none;
      }

      .cls-13 {
        fill: #b0b0b0;
      }
    </style>
  </defs>
  <g id="_1" data-name=" 1" class="cls-15">
    <g class="cls-14">
      <g id="Avatar2">
        <g>
          <path class="cls-2" d="M14,63.1v-27.8h38.5c9.9,0,19.8,2,28.9,5.7l11.2,4.6c3.1,1.3,3.1,5.8,0,7.1l-11.2,4.6c-9.2,3.8-19,5.7-28.9,5.7H14Z"/>
          <path class="cls-2" d="M22.8,91.4v-8.3h11.3c2.3,0,4.2,1.9,4.2,4.2h0c0,2.3-1.9,4.2-4.2,4.2h-11.3Z"/>
          <rect class="cls-11" x="40.5" y="35.2" width="1.6" height="27.8"/>
          <rect class="cls-13" x="29.1" y="37.4" width="9.1" height="23.5"/>
          <rect class="cls-5" x="9.2" y="38.8" width="4.8" height="20.8"/>
          <polygon class="cls-7" points="25.7 83.1 25.7 63.1 45 63.1 32.4 83.1 25.7 83.1"/>
          <polygon class="cls-6" points="45 63.1 42.1 63.1 29.5 83.1 32.4 83.1 45 63.1"/>
          <polygon class="cls-7" points="25.7 15.2 25.7 35.2 45 35.2 32.4 15.2 25.7 15.2"/>
          <rect class="cls-5" x="20.8" y="84.2" width="2" height="6.2"/>
          <rect class="cls-11" x="29.1" y="83.1" width="1.6" height="8.3"/>
          <rect class="cls-11" x="25.7" y="83.1" width="1.6" height="8.3"/>
          <path class="cls-2" d="M22.8,6.9v8.3h11.3c2.3,0,4.2-1.9,4.2-4.2h0c0-2.3-1.9-4.2-4.2-4.2h-11.3Z"/>
          <rect class="cls-5" x="20.8" y="8" width="2" height="6.2"/>
          <rect class="cls-11" x="29.1" y="6.9" width="1.6" height="8.3"/>
          <rect class="cls-11" x="25.7" y="6.9" width="1.6" height="8.3"/>
          <path class="cls-1" d="M10,49.2c.1,3.5.5,7-.5,10.4h4.5v3.5h38.5c9.9,0,19.8-2,28.9-5.7l11.2-4.6c1.6-.6,2.4-2.1,2.4-3.5H10Z"/>
          <polygon class="cls-6" points="45 35.2 42.1 35.2 29.5 15.2 32.4 15.2 45 35.2"/>
          <g>
            <path class="cls-5" d="M52.1,49.2c0-5.2,4.3-9.5,9.5-9.5s9.5,4.3,9.5,9.5-4.3,9.5-9.5,9.5-9.5-4.3-9.5-9.5Z"/>
            <circle class="cls-12" cx="61.6" cy="49.2" r="7.8"/>
            <path class="cls-4" d="M64,47.6c-1.1,0-2.1-.9-2.1-2.1s.9-2.1,2.1-2.1,2.1.9,2.1,2.1-.9,2.1-2.1,2.1Z"/>
          </g>
        </g>
      </g>
      <g id="Avatar1" class="cls-15">
        <g>
          <rect class="cls-5" x="6.6" y="36.3" width="3.3" height="19.3" transform="translate(-.5 0) rotate(-.6)"/>
          <path class="cls-8" d="M10,59.9l-.3-27.2,55-.6c10.9,0,21.6,2.5,31.2,7.6h0c4.6,2.4,4.7,9,0,11.5h0c-9.5,5.3-20.2,8.1-31,8.2l-55,.6h.1Z"/>
          <rect class="cls-11" x="47.3" y="32.3" width="2.2" height="27.2" transform="translate(-.5 .5) rotate(-.6)"/>
          <rect class="cls-11" x="37.1" y="32.4" width="2.2" height="27.2" transform="translate(-.5 .4) rotate(-.6)"/>
          <rect class="cls-11" x="31.9" y="32.4" width="2.2" height="27.2" transform="translate(-.5 .3) rotate(-.6)"/>
          <path class="cls-11" d="M42.2,45.9c0-3.4,2.7-6.3,6.2-6.3s6.3,2.7,6.3,6.2-2.7,6.3-6.2,6.3-6.3-2.7-6.3-6.2h0Z"/>
          <circle class="cls-10" cx="48.4" cy="45.9" r="4.5"/>
          <path class="cls-3" d="M3.6,50.1v-7.5l30,1.4c1,0,1.9.9,1.9,2h0c0,1-.8,1.9-1.8,2l-30,2.1h-.1Z"/>
          <path class="cls-3" d="M35.6,59.6h0l-31.9.3v6l29-3c1.7-.2,3-1.6,2.9-3.3h0Z"/>
          <path class="cls-3" d="M35.3,32.4h0l-31.9.3v-6l28.9,2.4c1.7.1,3,1.5,3,3.2h0Z"/>
          <path class="cls-1" d="M96,51.2h0c2.3-1.3,3.4-3.5,3.4-5.8l-93.9.9c0,.4-.2.7-.4,1,1.5,1.6,2.9,3.3,4,5.2.8,1.4.5,2.7-.4,3.4h1.3v3.9l55-.6c10.9,0,21.5-2.9,31-8.2h0s0,.2,0,.2Z"/>
          <g>
            <path class="cls-5" d="M59.2,45.8c0-5,4-9.1,9-9.2,5,0,9.1,4,9.2,9,0,5-4,9.1-9,9.2-5,0-9.1-4-9.2-9h0Z"/>
            <circle class="cls-12" cx="68.3" cy="45.7" r="7.4"/>
            <path class="cls-4" d="M70.6,44.1c-1.1,0-2-.9-2-2s.9-2,2-2,2,.9,2,2-.9,2-2,2Z"/>
          </g>
        </g>
      </g>
      <g id="Avatar3" class="cls-15">
        <g>
          <path class="cls-2" d="M17.4,61.3v-27.7h39.9c11,0,21.8,2.4,31.8,7l7.6,3.5c2.9,1.3,2.9,5.5,0,6.8l-7.6,3.5c-10,4.6-20.8,7-31.8,7H17.4Z"/>
          <g>
            <rect class="cls-11" x="55" y="33.6" width="1.6" height="27.7"/>
            <path class="cls-11" d="M63.4,33.9h-1.6v27.4h1.6v-27.4Z"/>
          </g>
          <rect class="cls-11" x="44.3" y="33.6" width="1.6" height="27.7"/>
          <rect class="cls-13" x="29.5" y="35.1" width="13.1" height="24.8"/>
          <rect class="cls-5" x="13" y="37.6" width="4.4" height="19.7"/>
          <rect class="cls-5" x="2.1" y="43.9" width="2.2" height="7.2"/>
          <rect class="cls-5" x="15.9" y="71.8" width="2.2" height="7.2"/>
          <path class="cls-7" d="M4.4,52.1v-9.2l30.8,3c.8,0,1.5.8,1.5,1.6h0c0,.9-.6,1.6-1.5,1.6l-30.8,3h0Z"/>
          <polygon class="cls-7" points="21.1 71.2 21.1 61.3 42.6 61.3 26.8 71.2 21.1 71.2"/>
          <path class="cls-2" d="M42.6,75.4h0c0-2.4-1.9-4.3-4.3-4.3h-20.3v8.5h20.3c2.4,0,4.3-1.9,4.3-4.3h0Z"/>
          <rect class="cls-11" x="31.9" y="71.2" width="1.6" height="8.5"/>
          <rect class="cls-11" x="28.3" y="71.2" width="1.6" height="8.5"/>
          <rect class="cls-5" x="15.9" y="15.9" width="2.2" height="7.2"/>
          <polygon class="cls-7" points="21.1 23.8 21.1 33.6 42.6 33.6 26.8 23.8 21.1 23.8"/>
          <path class="cls-2" d="M42.6,19.5h0c0,2.4-1.9,4.3-4.3,4.3h-20.3v-8.5h20.3c2.4,0,4.3,1.9,4.3,4.3h0Z"/>
          <rect class="cls-11" x="31.9" y="15.2" width="1.6" height="8.5"/>
          <rect class="cls-11" x="28.3" y="15.2" width="1.6" height="8.5"/>
          <path class="cls-1" d="M4,47.5v1.3h0c.2-.3.4-.5.6-.7.4-.4,1.1.2.7.7-.2.2-.4.5-.6.7s-.4.5-.6.7c0,.2.3.4.4.5.3.4.4.9.2,1.4l8.1-.8v6h4.4v4h39.9c11,0,21.8-2.4,31.8-7l7.6-3.5c1.5-.7,2.2-2,2.2-3.4H4Z"/>
          <g>
            <path class="cls-5" d="M50.7,47.5c0-4.9,4-8.9,8.9-8.9s8.9,4,8.9,8.9-4,8.9-8.9,8.9-8.9-4-8.9-8.9h0Z"/>
            <circle class="cls-12" cx="59.6" cy="47.5" r="7.3"/>
            <circle class="cls-4" cx="61.9" cy="44" r="1.9"/>
          </g>
        </g>
      </g>
      <g id="Avatar_4" data-name="Avatar 4" class="cls-15">
        <g>
          <path class="cls-2" d="M12.1,48.7h0c0-7.4,6-13.4,13.4-13.4h57.4c2.1,0,4.1,1,5.4,2.7l5,6.7c1.8,2.4,1.8,5.7,0,8l-5,6.7c-1.3,1.7-3.3,2.7-5.4,2.7H25.6c-7.4,0-13.4-6-13.4-13.4,0,0-.1,0-.1,0Z"/>
          <path class="cls-11" d="M3.4,55.4v-13.4h12.8c3.7,0,6.7,3,6.7,6.7h0c0,3.7-3,6.7-6.7,6.7H3.4Z"/>
          <rect class="cls-2" x="10.9" y="42" width="1.5" height="13.4"/>
          <rect class="cls-2" x="14.4" y="42" width="1.5" height="13.4"/>
          <rect class="cls-11" x="43.2" y="35.2" width="1.5" height="26.9"/>
          <rect class="cls-13" x="34.8" y="37" width="5.5" height="23.4"/>
          <rect class="cls-11" x="48.7" y="35.2" width="1.5" height="26.9"/>
          <rect class="cls-11" x="67.8" y="35.2" width="1.5" height="26.9"/>
          <polygon class="cls-7" points="8.6 76 8.6 62.1 75.2 62.1 8.6 76"/>
          <rect class="cls-5" x="5.8" y="64.3" width="2.8" height="9.6"/>
          <polygon class="cls-7" points="8.6 21.3 8.6 35.2 75.2 35.2 8.6 21.3"/>
          <rect class="cls-5" x="5.8" y="23.5" width="2.8" height="9.6"/>
          <path class="cls-1" d="M3.5,48.7v1.3c0,1.8.2,3.6,0,5.4h10.1c2.3,4,6.7,6.7,11.6,6.7h57.4c2.1,0,4.1-1,5.4-2.7l5-6.7c.9-1.2,1.3-2.6,1.3-4H3.5Z"/>
          <g>
            <path class="cls-5" d="M59.2,48.7c0-5.2,4.2-9.4,9.4-9.4s9.4,4.2,9.4,9.4-4.2,9.4-9.4,9.4-9.4-4.2-9.4-9.4Z"/>
            <circle class="cls-12" cx="68.6" cy="48.7" r="7.7"/>
            <path class="cls-4" d="M71,47.1c-1.1,0-2-.9-2-2s.9-2,2-2,2,.9,2,2-.9,2-2,2Z"/>
          </g>
        </g>
      </g>
      <g id="Avatar_5" data-name="Avatar 5" class="cls-15">
        <g>
          <path class="cls-2" d="M39.6,62.8l-24.1-14.4,24.1-14.4h44.2c1.8,0,3.5.7,4.8,1.9l7.9,7.2c3.2,2.9,3.2,7.8,0,10.7l-7.9,7.2c-1.3,1.2-3.1,1.9-4.8,1.9h-44.2Z"/>
          <path class="cls-7" d="M16.6,50.6v-4.3h25c1.2,0,2.1,1,2.1,2.1h0c0,1.2-1,2.1-2.1,2.1h-25,0Z"/>
          <path class="cls-7" d="M39.6,62.8s-7.3,11.5-25.9,15.6c-4.4,1-7.7-3.9-5.2-7.7,3.6-5.3,7-12.8,7-22.3l24.1,14.4h0Z"/>
          <path class="cls-7" d="M39.6,34s-7.3-11.5-25.9-15.6c-4.4-1-7.7,3.9-5.2,7.7,3.6,5.3,7,12.8,7,22.3l24.1-14.4Z"/>
          <path class="cls-11" d="M3,55.6v-14.4h13.7c4,0,7.2,3.2,7.2,7.2h0c0,4-3.2,7.2-7.2,7.2H3Z"/>
          <rect class="cls-2" x="11" y="41.2" width="1.6" height="14.4"/>
          <rect class="cls-2" x="14.7" y="41.2" width="1.6" height="14.4"/>
          <rect class="cls-11" x="51.9" y="34" width="2.3" height="28.8"/>
          <rect class="cls-11" x="59" y="34" width="2.3" height="28.8"/>
          <path class="cls-9" d="M13.7,78.4c18.5-4,25.9-15.6,25.9-15.6l-28.5,3.6c-.8,1.6-1.7,3-2.6,4.3-2.5,3.7.9,8.5,5.2,7.6h0Z"/>
          <path class="cls-9" d="M13.7,18.5c18.5,4,25.9,15.6,25.9,15.6l-28.5-3.6c-.8-1.6-1.7-3-2.6-4.3-2.5-3.7.9-8.5,5.2-7.6h0Z"/>
          <path class="cls-1" d="M3.4,48.4v7.2h13.2c2.4,0,4.5-1.2,5.8-3l17.1,10.2h44.2c1.8,0,3.5-.7,4.8-1.9l7.9-7.2c1.6-1.4,2.4-3.4,2.4-5.3H3.4Z"/>
          <g>
            <path class="cls-5" d="M64.9,48.4c0-5.5,4.5-9.9,9.9-9.9s9.9,4.5,9.9,9.9-4.5,9.9-9.9,9.9-9.9-4.5-9.9-9.9Z"/>
            <circle class="cls-12" cx="74.9" cy="48.4" r="8.1"/>
            <circle class="cls-4" cx="77.4" cy="44.6" r="2.2"/>
          </g>
        </g>
      </g>
      <g id="Avatar6" class="cls-15">
        <g>
          <path class="cls-7" d="M19.2,76.8v-16h38v2.1l-35,15.8c-1.4.6-2.9-.4-2.9-1.9h-.1Z"/>
          <path class="cls-7" d="M19.2,28.9v16h38v-2.1l-35-15.8c-1.4-.6-2.9.4-2.9,1.9,0,0-.1,0-.1,0Z"/>
          <path class="cls-2" d="M9,62v-18.3l40.9-2.1c10.7-.6,21.5.6,31.8,3.5l13.2,3.7c4.1,1.1,4.1,6.9,0,8.1l-13.2,3.7c-10.3,2.9-21.1,4.1-31.8,3.5l-40.9-2.1h0Z"/>
          <g>
            <path class="cls-11" d="M55.7,64.3h2.2v-22.8h-2.2v22.8Z"/>
            <path class="cls-11" d="M64.2,41.9c-.8,0-1.5,0-2.2-.2v22.4c.8,0,1.5,0,2.2-.2v-22h0Z"/>
          </g>
          <rect class="cls-5" x="5.3" y="46.7" width="3.7" height="12.2"/>
          <path class="cls-7" d="M5.3,54.9v-4.1h24.2c1.1,0,2.1.9,2.1,2.1h0c0,1.1-.9,2.1-2.1,2.1H5.3Z"/>
          <polygon class="cls-13" points="38.5 61.2 38.5 44.5 47 44.1 47 61.6 38.5 61.2"/>
          <path class="cls-1" d="M6.2,52.9c0,.6,0,1.1-.2,1.7-.2,1.5-.2,2.9-.3,4.4h3.2v3l40.9,2.1c10.7.6,21.5-.6,31.8-3.5l13.2-3.7c2-.6,3.1-2.3,3.1-4,0,0-91.7,0-91.7,0Z"/>
          <g>
            <path class="cls-5" d="M52.2,52.9c0-4.2,3.4-7.6,7.6-7.6s7.6,3.4,7.6,7.6-3.4,7.6-7.6,7.6-7.6-3.4-7.6-7.6Z"/>
            <circle class="cls-12" cx="59.7" cy="52.9" r="6.2"/>
            <path class="cls-4" d="M61.7,51.6c-.9,0-1.7-.7-1.7-1.7s.7-1.7,1.7-1.7,1.7.7,1.7,1.7-.7,1.7-1.7,1.7Z"/>
          </g>
        </g>
      </g>
    </g>
  </g>
  <g id="_6" data-name=" 6" class="cls-15">
    <g class="cls-14">
      <g id="Avatar2-2" class="cls-15">
        <g>
          <path class="cls-2" d="M18,61.3v-27h37.3c9.6,0,19.1,1.9,28,5.6l10.8,4.5c3,1.3,3,5.6,0,6.8l-10.8,4.5c-8.9,3.7-18.4,5.6-28,5.6,0,0-37.3,0-37.3,0Z"/>
          <path class="cls-2" d="M26.5,88.7v-8.1h11c2.2,0,4,1.8,4,4h0c0,2.2-1.8,4-4,4h-11Z"/>
          <rect class="cls-11" x="43.6" y="34.3" width="1.5" height="27"/>
          <rect class="cls-13" x="32.6" y="36.4" width="8.8" height="22.8"/>
          <rect class="cls-5" x="13.3" y="37.7" width="4.7" height="20.1"/>
          <polygon class="cls-7" points="29.3 80.7 29.3 61.3 48 61.3 35.8 80.7 29.3 80.7"/>
          <polygon class="cls-6" points="48 61.3 45.2 61.3 32.9 80.7 35.8 80.7 48 61.3"/>
          <polygon class="cls-7" points="29.3 14.9 29.3 34.3 48 34.3 35.8 14.9 29.3 14.9"/>
          <rect class="cls-5" x="24.5" y="81.7" width="2" height="6"/>
          <rect class="cls-11" x="32.6" y="80.7" width="1.5" height="8.1"/>
          <rect class="cls-11" x="29.3" y="80.7" width="1.5" height="8.1"/>
          <path class="cls-2" d="M26.5,6.9v8.1h11c2.2,0,4-1.8,4-4h0c0-2.2-1.8-4-4-4h-11Z"/>
          <rect class="cls-5" x="24.5" y="7.9" width="2" height="6"/>
          <rect class="cls-11" x="32.6" y="6.9" width="1.5" height="8.1"/>
          <rect class="cls-11" x="29.3" y="6.9" width="1.5" height="8.1"/>
          <path class="cls-1" d="M14.1,47.8c.1,3.4.5,6.8-.5,10.1h4.4v3.4h37.3c9.6,0,19.1-1.9,28-5.6l10.8-4.5c1.5-.6,2.3-2,2.3-3.4,0,0-82.3,0-82.3,0Z"/>
          <polygon class="cls-6" points="48 34.3 45.2 34.3 32.9 14.9 35.8 14.9 48 34.3"/>
          <g>
            <path class="cls-5" d="M54.8,47.8c0-5.1,4.1-9.2,9.2-9.2s9.2,4.1,9.2,9.2-4.1,9.2-9.2,9.2-9.2-4.1-9.2-9.2Z"/>
            <circle class="cls-12" cx="64.1" cy="47.8" r="7.5"/>
            <path class="cls-4" d="M66.4,46.2c-1.1,0-2-.9-2-2s.9-2,2-2,2,.9,2,2-.9,2-2,2Z"/>
          </g>
        </g>
      </g>
      <g id="Avatar1-2" class="cls-15">
        <g>
          <rect class="cls-5" x="10.8" y="35.7" width="3.2" height="18.7" transform="translate(-.5 .1) rotate(-.6)"/>
          <path class="cls-8" d="M14.1,58.2l-.3-26.4,53.2-.5c10.5-.1,20.9,2.4,30.2,7.3h0c4.5,2.4,4.5,8.7,0,11.1h0c-9.2,5.1-19.5,7.8-30.1,7.9l-53.2.5h.2Z"/>
          <rect class="cls-11" x="50.2" y="31.4" width="2.1" height="26.4" transform="translate(-.5 .5) rotate(-.6)"/>
          <rect class="cls-11" x="40.3" y="31.5" width="2.1" height="26.4" transform="translate(-.5 .4) rotate(-.6)"/>
          <rect class="cls-11" x="35.3" y="31.6" width="2.1" height="26.4" transform="translate(-.5 .4) rotate(-.6)"/>
          <path class="cls-11" d="M45.2,44.7c0-3.3,2.6-6.1,6-6.1s6.1,2.6,6.1,6-2.6,6.1-6,6.1-6.1-2.6-6.1-6h0Z"/>
          <circle class="cls-10" cx="51.3" cy="44.6" r="4.4"/>
          <path class="cls-3" d="M7.9,48.7v-7.2l29,1.4c1,0,1.8.9,1.8,1.9h0c0,1-.8,1.9-1.8,1.9l-29.1,2h0Z"/>
          <path class="cls-3" d="M38.9,57.9h0l-30.9.3v5.8l28.1-2.9c1.6-.2,2.9-1.6,2.8-3.2h0Z"/>
          <path class="cls-3" d="M38.6,31.5h0l-30.9.3v-5.8l28,2.3c1.6.1,2.9,1.5,2.9,3.1h0Z"/>
          <path class="cls-1" d="M97.4,49.7h0c2.2-1.2,3.3-3.4,3.3-5.6l-91,.9c0,.4-.2.7-.4,1,1.4,1.6,2.8,3.2,3.9,5,.8,1.4.4,2.6-.4,3.3h1.2v3.8l53.2-.5c10.5,0,20.9-2.8,30.1-7.9h0Z"/>
          <g>
            <path class="cls-5" d="M61.8,44.5c0-4.9,3.9-8.9,8.7-8.9s8.9,3.9,8.9,8.7-3.9,8.9-8.7,8.9-8.9-3.9-8.9-8.7h0Z"/>
            <circle class="cls-12" cx="70.6" cy="44.4" r="7.2"/>
            <path class="cls-4" d="M72.8,42.9c-1.1,0-1.9-.8-1.9-1.9s.8-1.9,1.9-1.9,1.9.8,1.9,1.9-.8,1.9-1.9,1.9Z"/>
          </g>
        </g>
      </g>
      <g id="Avatar3-2" class="cls-15">
        <g>
          <path class="cls-2" d="M21.2,59.6v-26.8h38.7c10.6,0,21.1,2.3,30.8,6.7l7.3,3.4c2.8,1.3,2.8,5.3,0,6.6l-7.3,3.4c-9.7,4.4-20.2,6.7-30.8,6.7,0,0-38.7,0-38.7,0Z"/>
          <g>
            <rect class="cls-11" x="57.6" y="32.7" width="1.5" height="26.8"/>
            <path class="cls-11" d="M65.8,33h-1.5v26.5h1.5v-26.5Z"/>
          </g>
          <rect class="cls-11" x="47.3" y="32.7" width="1.5" height="26.8"/>
          <rect class="cls-13" x="32.9" y="34.1" width="12.7" height="24"/>
          <rect class="cls-5" x="16.9" y="36.6" width="4.3" height="19.1"/>
          <rect class="cls-5" x="6.5" y="42.7" width="2.2" height="6.9"/>
          <rect class="cls-5" x="19.8" y="69.8" width="2.2" height="6.9"/>
          <path class="cls-7" d="M8.6,50.6v-8.9l29.8,2.9c.8,0,1.4.8,1.4,1.6h0c0,.8-.6,1.5-1.4,1.6l-29.8,2.9h0Z"/>
          <polygon class="cls-7" points="24.9 69.1 24.9 59.6 45.7 59.6 30.4 69.1 24.9 69.1"/>
          <path class="cls-2" d="M45.7,73.2h0c0-2.3-1.9-4.1-4.1-4.1h-19.6v8.3h19.6c2.3,0,4.1-1.9,4.1-4.1h0Z"/>
          <rect class="cls-11" x="35.3" y="69.1" width="1.5" height="8.3"/>
          <rect class="cls-11" x="31.8" y="69.1" width="1.5" height="8.3"/>
          <rect class="cls-5" x="19.8" y="15.6" width="2.2" height="6.9"/>
          <polygon class="cls-7" points="24.9 23.2 24.9 32.7 45.7 32.7 30.4 23.2 24.9 23.2"/>
          <path class="cls-2" d="M45.7,19.1h0c0,2.3-1.9,4.1-4.1,4.1h-19.6v-8.3h19.6c2.3,0,4.1,1.9,4.1,4.1h0Z"/>
          <rect class="cls-11" x="35.3" y="14.9" width="1.5" height="8.3"/>
          <rect class="cls-11" x="31.8" y="14.9" width="1.5" height="8.3"/>
          <path class="cls-1" d="M8.3,46.2v1.3h0c.2-.2.4-.4.6-.6.4-.4,1,.2.6.6-.2.2-.4.4-.6.7-.2.2-.4.4-.6.7.1.2.3.3.4.5.3.4.4.9.2,1.3l7.9-.8v5.9h4.3v3.9h38.7c10.6,0,21.1-2.3,30.8-6.7l7.3-3.4c1.4-.6,2.1-2,2.1-3.3H8.3Z"/>
          <g>
            <path class="cls-5" d="M53.5,46.2c0-4.8,3.9-8.6,8.6-8.6s8.6,3.9,8.6,8.6-3.9,8.6-8.6,8.6-8.6-3.9-8.6-8.6h0Z"/>
            <circle class="cls-12" cx="62.1" cy="46.1" r="7.1"/>
            <circle class="cls-4" cx="64.3" cy="42.8" r="1.9"/>
          </g>
        </g>
      </g>
      <g id="Avatar_4-2" data-name="Avatar 4-2" class="cls-15">
        <g>
          <path class="cls-2" d="M16.1,47.3h0c0-7.2,5.8-13,13-13h55.6c2.1,0,4,1,5.2,2.6l4.9,6.5c1.7,2.3,1.7,5.5,0,7.8l-4.9,6.5c-1.2,1.6-3.2,2.6-5.2,2.6H29.1c-7.2,0-13-5.8-13-13h0Z"/>
          <path class="cls-11" d="M7.7,53.8v-13h12.4c3.6,0,6.5,2.9,6.5,6.5h0c0,3.6-2.9,6.5-6.5,6.5H7.7Z"/>
          <rect class="cls-2" x="14.9" y="40.8" width="1.5" height="13"/>
          <rect class="cls-2" x="18.3" y="40.8" width="1.5" height="13"/>
          <rect class="cls-11" x="46.3" y="34.3" width="1.5" height="26.1"/>
          <rect class="cls-13" x="38.1" y="36" width="5.3" height="22.6"/>
          <rect class="cls-11" x="51.5" y="34.3" width="1.5" height="26.1"/>
          <rect class="cls-11" x="70.1" y="34.3" width="1.5" height="26.1"/>
          <polygon class="cls-7" points="12.7 73.8 12.7 60.3 77.2 60.3 12.7 73.8"/>
          <rect class="cls-5" x="10" y="62.4" width="2.7" height="9.3"/>
          <polygon class="cls-7" points="12.7 20.8 12.7 34.3 77.2 34.3 12.7 20.8"/>
          <rect class="cls-5" x="10" y="22.9" width="2.7" height="9.3"/>
          <path class="cls-1" d="M7.8,47.3v1.3c0,1.7.2,3.5,0,5.2h9.8c2.3,3.9,6.5,6.5,11.3,6.5h55.6c2.1,0,4-1,5.2-2.6l4.9-6.5c.9-1.2,1.3-2.5,1.3-3.9H7.8Z"/>
          <g>
            <path class="cls-5" d="M61.7,47.3c0-5,4.1-9.1,9.1-9.1s9.1,4.1,9.1,9.1-4.1,9.1-9.1,9.1-9.1-4.1-9.1-9.1Z"/>
            <circle class="cls-12" cx="70.9" cy="47.4" r="7.4"/>
            <path class="cls-4" d="M73.1,45.8c-1.1,0-2-.9-2-2s.9-2,2-2,2,.9,2,2-.9,2-2,2Z"/>
          </g>
        </g>
      </g>
      <g id="Avatar_5-2" data-name="Avatar 5-2" class="cls-15">
        <g>
          <path class="cls-2" d="M42.7,61l-23.3-14,23.3-14h42.8c1.7,0,3.4.6,4.7,1.8l7.7,7c3.1,2.8,3.1,7.6,0,10.3l-7.7,7c-1.3,1.2-3,1.8-4.7,1.8h-42.8Z"/>
          <path class="cls-7" d="M20.4,49.1v-4.1h24.2c1.1,0,2.1.9,2.1,2.1h0c0,1.1-.9,2.1-2.1,2.1h-24.2,0Z"/>
          <path class="cls-7" d="M42.7,61s-7.1,11.2-25,15.1c-4.2.9-7.4-3.8-5-7.4,3.5-5.1,6.7-12.4,6.7-21.6l23.3,14h0Z"/>
          <path class="cls-7" d="M42.7,33.1s-7.1-11.2-25-15.1c-4.2-.9-7.4,3.8-5,7.4,3.5,5.1,6.7,12.4,6.7,21.6l23.3-14h0Z"/>
          <path class="cls-11" d="M7.3,54v-13.9h13.3c3.8,0,7,3.1,7,7h0c0,3.8-3.1,7-7,7H7.3Z"/>
          <rect class="cls-2" x="15" y="40.1" width="1.6" height="13.9"/>
          <rect class="cls-2" x="18.6" y="40.1" width="1.6" height="13.9"/>
          <rect class="cls-11" x="54.7" y="33.1" width="2.2" height="27.9"/>
          <rect class="cls-11" x="61.5" y="33.1" width="2.2" height="27.9"/>
          <path class="cls-9" d="M17.7,76.1c18-3.9,25.1-15.1,25.1-15.1l-27.6,3.5c-.8,1.5-1.6,2.9-2.5,4.2-2.4,3.6.9,8.3,5.1,7.3h-.1Z"/>
          <path class="cls-9" d="M17.7,18c18,3.9,25.1,15.1,25.1,15.1l-27.6-3.5c-.8-1.5-1.6-2.9-2.5-4.2-2.4-3.6.9-8.3,5.1-7.3h-.1Z"/>
          <path class="cls-1" d="M7.7,47.1v7h12.8c2.3,0,4.4-1.2,5.6-2.9l16.5,9.9h42.8c1.7,0,3.4-.6,4.7-1.8l7.7-7c1.5-1.4,2.3-3.3,2.3-5.2H7.7Z"/>
          <g>
            <path class="cls-5" d="M67.3,47.1c0-5.3,4.3-9.6,9.6-9.6s9.6,4.3,9.6,9.6-4.3,9.6-9.6,9.6-9.6-4.3-9.6-9.6Z"/>
            <circle class="cls-12" cx="76.9" cy="47.1" r="7.9"/>
            <circle class="cls-4" cx="79.3" cy="43.4" r="2.1"/>
          </g>
        </g>
      </g>
      <g id="Avatar6-2">
        <g>
          <path class="cls-7" d="M23,74.6v-15.5h36.8v2l-33.9,15.3c-1.3.6-2.9-.4-2.9-1.8h0Z"/>
          <path class="cls-7" d="M23,28.2v15.5h36.8v-2l-33.9-15.3c-1.3-.6-2.9.4-2.9,1.8h0Z"/>
          <path class="cls-2" d="M13.1,60.2v-17.8l39.6-2.1c10.4-.5,20.8.6,30.8,3.4l12.8,3.6c4,1.1,4,6.7,0,7.8l-12.8,3.6c-10,2.8-20.4,4-30.8,3.4l-39.6-2.1h0s0,.2,0,.2Z"/>
          <g>
            <path class="cls-11" d="M58.3,62.4h2.2v-22.1h-2.2v22.1Z"/>
            <path class="cls-11" d="M66.6,40.7c-.7,0-1.4,0-2.2-.2v21.7c.7,0,1.5,0,2.2-.2v-21.3h0Z"/>
          </g>
          <rect class="cls-5" x="9.5" y="45.4" width="3.5" height="11.9"/>
          <path class="cls-7" d="M9.5,53.4v-4h23.5c1.1,0,2,.9,2,2h0c0,1.1-.9,2-2,2H9.5Z"/>
          <polygon class="cls-13" points="41.7 59.4 41.7 43.3 49.9 42.9 49.9 59.9 41.7 59.4"/>
          <path class="cls-1" d="M10.4,51.4c0,.5-.1,1.1-.2,1.6-.2,1.4-.2,2.9-.3,4.3h3.1v2.9l39.6,2.1c10.4.5,20.8-.6,30.8-3.4l12.8-3.6c2-.6,3-2.2,3-3.9,0,0-88.8,0-88.8,0Z"/>
          <g>
            <path class="cls-5" d="M54.9,51.4c0-4,3.3-7.3,7.3-7.3s7.3,3.3,7.3,7.3-3.3,7.3-7.3,7.3-7.3-3.3-7.3-7.3Z"/>
            <circle class="cls-12" cx="62.2" cy="51.4" r="6"/>
            <path class="cls-4" d="M64.1,50.1c-.9,0-1.6-.7-1.6-1.6s.7-1.6,1.6-1.6,1.6.7,1.6,1.6-.7,1.6-1.6,1.6Z"/>
          </g>
        </g>
      </g>
    </g>
  </g>
  <g id="_5" data-name=" 5" class="cls-15">
    <g class="cls-14">
      <g id="Avatar2-3" class="cls-15">
        <g>
          <path class="cls-2" d="M16.1,62.8v-25.7h35.5c9.2,0,18.2,1.8,26.7,5.3l10.3,4.3c2.9,1.2,2.9,5.3,0,6.5l-10.3,4.3c-8.5,3.5-17.5,5.3-26.7,5.3,0,0-35.5,0-35.5,0Z"/>
          <path class="cls-2" d="M24.2,89v-7.7h10.4c2.1,0,3.8,1.7,3.8,3.8h0c0,2.1-1.7,3.8-3.8,3.8h-10.4,0Z"/>
          <rect class="cls-11" x="40.5" y="37.2" width="1.5" height="25.7"/>
          <rect class="cls-13" x="30" y="39.2" width="8.4" height="21.7"/>
          <rect class="cls-5" x="11.7" y="40.4" width="4.5" height="19.2"/>
          <polygon class="cls-7" points="26.9 81.3 26.9 62.8 44.7 62.8 33 81.3 26.9 81.3"/>
          <polygon class="cls-6" points="44.7 62.8 42 62.8 30.3 81.3 33 81.3 44.7 62.8"/>
          <polygon class="cls-7" points="26.9 18.7 26.9 37.2 44.7 37.2 33 18.7 26.9 18.7"/>
          <rect class="cls-5" x="22.3" y="82.3" width="1.9" height="5.7"/>
          <rect class="cls-11" x="30" y="81.3" width="1.5" height="7.7"/>
          <rect class="cls-11" x="26.9" y="81.3" width="1.5" height="7.7"/>
          <path class="cls-2" d="M24.2,11v7.7h10.4c2.1,0,3.8-1.7,3.8-3.8h0c0-2.1-1.7-3.8-3.8-3.8h-10.4,0Z"/>
          <rect class="cls-5" x="22.3" y="12" width="1.9" height="5.7"/>
          <rect class="cls-11" x="30" y="11" width="1.5" height="7.7"/>
          <rect class="cls-11" x="26.9" y="11" width="1.5" height="7.7"/>
          <path class="cls-1" d="M12.4,50c.1,3.2.5,6.5-.5,9.6h4.2v3.3h35.5c9.2,0,18.2-1.8,26.7-5.3l10.3-4.3c1.5-.6,2.2-1.9,2.2-3.3H12.4Z"/>
          <polygon class="cls-6" points="44.7 37.2 42 37.2 30.3 18.7 33 18.7 44.7 37.2"/>
          <g>
            <path class="cls-5" d="M51.2,50c0-4.8,3.9-8.8,8.8-8.8s8.8,3.9,8.8,8.8-3.9,8.8-8.8,8.8-8.8-3.9-8.8-8.8Z"/>
            <circle class="cls-12" cx="60" cy="50" r="7.2"/>
            <path class="cls-4" d="M62.2,48.5c-1.1,0-1.9-.9-1.9-1.9s.9-1.9,1.9-1.9,1.9.9,1.9,1.9-.9,1.9-1.9,1.9Z"/>
          </g>
        </g>
      </g>
      <g id="Avatar1-3" class="cls-15">
        <g>
          <rect class="cls-5" x="9.3" y="38.4" width="3" height="17.8" transform="translate(-.5 .1) rotate(-.6)"/>
          <path class="cls-8" d="M12.4,59.9l-.3-25.1,50.7-.5c10,0,19.9,2.3,28.8,7h0c4.2,2.2,4.3,8.3,0,10.6h0c-8.8,4.8-18.6,7.4-28.6,7.5l-50.7.5h.1Z"/>
          <rect class="cls-11" x="46.8" y="34.4" width="2" height="25.1" transform="translate(-.5 .5) rotate(-.6)"/>
          <rect class="cls-11" x="37.4" y="34.5" width="2" height="25.1" transform="translate(-.5 .4) rotate(-.6)"/>
          <rect class="cls-11" x="32.6" y="34.6" width="2" height="25.1" transform="translate(-.5 .4) rotate(-.6)"/>
          <path class="cls-11" d="M42,47c0-3.2,2.5-5.8,5.7-5.8s5.8,2.5,5.8,5.7-2.5,5.8-5.7,5.8-5.8-2.5-5.8-5.7h0Z"/>
          <circle class="cls-10" cx="47.8" cy="47" r="4.2"/>
          <path class="cls-3" d="M6.5,50.8v-6.9l27.7,1.3c1,0,1.7.8,1.7,1.8h0c0,1-.7,1.8-1.7,1.8l-27.7,1.9h0Z"/>
          <path class="cls-3" d="M36,59.6h0l-29.4.3v5.5l26.7-2.8c1.6-.2,2.7-1.5,2.7-3h0Z"/>
          <path class="cls-3" d="M35.7,34.5h0l-29.4.3v-5.5l26.7,2.2c1.6.1,2.8,1.4,2.8,3h0Z"/>
          <path class="cls-1" d="M91.7,51.8h0c2.1-1.2,3.1-3.3,3.1-5.3l-86.6.9c0,.4-.2.6-.4.9,1.4,1.5,2.7,3,3.7,4.8.8,1.3.4,2.5-.4,3.2h1.2v3.6l50.7-.5c10,0,19.9-2.7,28.6-7.5h0Z"/>
          <g>
            <path class="cls-5" d="M57.8,46.9c0-4.6,3.7-8.4,8.3-8.5s8.4,3.7,8.5,8.3c0,4.6-3.7,8.4-8.3,8.5-4.6,0-8.4-3.7-8.5-8.3h0Z"/>
            <circle class="cls-12" cx="66.2" cy="46.8" r="6.9"/>
            <path class="cls-4" d="M68.3,45.3c-1,0-1.8-.8-1.8-1.8s.8-1.8,1.8-1.8,1.8.8,1.8,1.8-.8,1.8-1.8,1.8Z"/>
          </g>
        </g>
      </g>
      <g id="Avatar3-3" class="cls-15">
        <g>
          <path class="cls-2" d="M19.2,61.2v-25.5h36.8c10.1,0,20.1,2.2,29.3,6.4l7,3.2c2.7,1.2,2.7,5.1,0,6.3l-7,3.2c-9.2,4.2-19.2,6.4-29.3,6.4,0,0-36.8,0-36.8,0Z"/>
          <g>
            <rect class="cls-11" x="53.8" y="35.7" width="1.5" height="25.5"/>
            <path class="cls-11" d="M61.6,35.9h-1.5v25.3h1.5v-25h0v-.3Z"/>
          </g>
          <rect class="cls-11" x="44" y="35.7" width="1.5" height="25.5"/>
          <rect class="cls-13" x="30.4" y="37" width="12.1" height="22.9"/>
          <rect class="cls-5" x="15.1" y="39.4" width="4.1" height="18.1"/>
          <rect class="cls-5" x="5.2" y="45.1" width="2.1" height="6.6"/>
          <rect class="cls-5" x="17.8" y="70.9" width="2.1" height="6.6"/>
          <path class="cls-7" d="M7.2,52.7v-8.5l28.4,2.7c.8,0,1.4.7,1.4,1.5h0c0,.8-.6,1.4-1.4,1.5l-28.4,2.7h0Z"/>
          <polygon class="cls-7" points="22.7 70.3 22.7 61.2 42.5 61.2 27.9 70.3 22.7 70.3"/>
          <path class="cls-2" d="M42.5,74.2h0c0-2.2-1.8-3.9-3.9-3.9h-18.7v7.9h18.7c2.2,0,3.9-1.8,3.9-3.9h0Z"/>
          <rect class="cls-11" x="32.6" y="70.3" width="1.5" height="7.9"/>
          <rect class="cls-11" x="29.2" y="70.3" width="1.5" height="7.9"/>
          <rect class="cls-5" x="17.8" y="19.4" width="2.1" height="6.6"/>
          <polygon class="cls-7" points="22.7 26.6 22.7 35.7 42.5 35.7 27.9 26.6 22.7 26.6"/>
          <path class="cls-2" d="M42.5,22.7h0c0,2.2-1.8,3.9-3.9,3.9h-18.7v-7.9h18.7c2.2,0,3.9,1.8,3.9,3.9h0Z"/>
          <rect class="cls-11" x="32.6" y="18.7" width="1.5" height="7.9"/>
          <rect class="cls-11" x="29.2" y="18.7" width="1.5" height="7.9"/>
          <path class="cls-1" d="M6.9,48.4v1.2h0c.2-.2.4-.4.6-.6.4-.4,1,.2.6.6-.2.2-.4.4-.6.6-.2.2-.4.4-.5.7,0,.2.3.3.4.5.3.4.4.8.2,1.3l7.5-.7v5.6h4.1v3.7h36.8c10.1,0,20.1-2.2,29.3-6.4l7-3.2c1.3-.6,2-1.9,2-3.1H6.9s0-.2,0-.2Z"/>
          <g>
            <path class="cls-5" d="M49.9,48.4c0-4.5,3.7-8.2,8.2-8.2s8.2,3.7,8.2,8.2-3.7,8.2-8.2,8.2-8.2-3.7-8.2-8.2h0Z"/>
            <circle class="cls-12" cx="58.1" cy="48.4" r="6.7"/>
            <circle class="cls-4" cx="60.2" cy="45.3" r="1.8"/>
          </g>
        </g>
      </g>
      <g id="Avatar_4-3" data-name="Avatar 4-3" class="cls-15">
        <g>
          <path class="cls-2" d="M14.3,49.5h0c0-6.8,5.5-12.4,12.4-12.4h52.9c2,0,3.8.9,5,2.5l4.6,6.2c1.6,2.2,1.6,5.2,0,7.4l-4.6,6.2c-1.2,1.6-3,2.5-5,2.5H26.7c-6.8,0-12.4-5.5-12.4-12.4h0Z"/>
          <path class="cls-11" d="M6.3,55.7v-12.4h11.8c3.4,0,6.2,2.8,6.2,6.2h0c0,3.4-2.8,6.2-6.2,6.2,0,0-11.8,0-11.8,0Z"/>
          <rect class="cls-2" x="13.2" y="43.4" width="1.4" height="12.4"/>
          <rect class="cls-2" x="16.4" y="43.4" width="1.4" height="12.4"/>
          <rect class="cls-11" x="43" y="37.1" width="1.4" height="24.8"/>
          <rect class="cls-13" x="35.3" y="38.8" width="5.1" height="21.5"/>
          <rect class="cls-11" x="48.1" y="37.1" width="1.4" height="24.8"/>
          <rect class="cls-11" x="65.7" y="37.1" width="1.4" height="24.8"/>
          <polygon class="cls-7" points="11.1 74.8 11.1 61.9 72.5 61.9 11.1 74.8"/>
          <rect class="cls-5" x="8.5" y="63.9" width="2.6" height="8.9"/>
          <polygon class="cls-7" points="11.1 24.3 11.1 37.1 72.5 37.1 11.1 24.3"/>
          <rect class="cls-5" x="8.5" y="26.3" width="2.6" height="8.9"/>
          <path class="cls-1" d="M6.4,49.5v1.2c0,1.7.2,3.3,0,5h9.4c2.1,3.7,6.1,6.2,10.7,6.2h52.9c2,0,3.8-.9,5-2.5l4.6-6.2c.8-1.1,1.2-2.4,1.2-3.7H6.4Z"/>
          <g>
            <path class="cls-5" d="M57.8,49.5c0-4.8,3.9-8.7,8.7-8.7s8.7,3.9,8.7,8.7-3.9,8.7-8.7,8.7-8.7-3.9-8.7-8.7Z"/>
            <circle class="cls-12" cx="66.5" cy="49.6" r="7.1"/>
            <path class="cls-4" d="M68.6,48.1c-1,0-1.9-.8-1.9-1.9s.8-1.9,1.9-1.9,1.9.8,1.9,1.9-.8,1.9-1.9,1.9Z"/>
          </g>
        </g>
      </g>
      <g id="Avatar_5-3" data-name="Avatar 5-3">
        <g>
          <path class="cls-2" d="M39.7,62.6l-22.2-13.3,22.2-13.3h40.7c1.7,0,3.2.6,4.5,1.7l7.3,6.6c2.9,2.6,2.9,7.2,0,9.8l-7.3,6.6c-1.2,1.1-2.8,1.7-4.5,1.7h-40.7v.2Z"/>
          <path class="cls-7" d="M18.4,51.3v-3.9h23.1c1.1,0,2,.9,2,2h0c0,1.1-.9,2-2,2h-23.1Z"/>
          <path class="cls-7" d="M39.7,62.6s-6.8,10.6-23.8,14.3c-4,.9-7.1-3.6-4.8-7.1,3.3-4.9,6.4-11.8,6.4-20.6l22.2,13.3h0Z"/>
          <path class="cls-7" d="M39.7,36s-6.8-10.6-23.8-14.3c-4-.9-7.1,3.6-4.8,7.1,3.3,4.9,6.4,11.8,6.4,20.6l22.2-13.3h0Z"/>
          <path class="cls-11" d="M5.9,56v-13.3h12.7c3.7,0,6.6,3,6.6,6.6h0c0,3.7-3,6.6-6.6,6.6H5.9Z"/>
          <rect class="cls-2" x="13.3" y="42.7" width="1.5" height="13.3"/>
          <rect class="cls-2" x="16.7" y="42.7" width="1.5" height="13.3"/>
          <rect class="cls-11" x="51" y="36" width="2.1" height="26.6"/>
          <rect class="cls-11" x="57.5" y="36" width="2.1" height="26.6"/>
          <path class="cls-9" d="M15.8,77c17.1-3.7,23.9-14.3,23.9-14.3l-26.3,3.3c-.8,1.5-1.6,2.8-2.4,4-2.3,3.4.8,7.9,4.8,7h0Z"/>
          <path class="cls-9" d="M15.8,21.7c17.1,3.7,23.9,14.3,23.9,14.3l-26.3-3.3c-.8-1.5-1.6-2.8-2.4-4-2.3-3.4.8-7.9,4.8-7h0Z"/>
          <path class="cls-1" d="M6.3,49.3v6.6h12.1c2.2,0,4.2-1.1,5.4-2.8l15.7,9.4h40.7c1.7,0,3.2-.6,4.5-1.7l7.3-6.6c1.5-1.3,2.2-3.1,2.2-4.9H6.3Z"/>
          <g>
            <path class="cls-5" d="M63,49.3c0-5,4.1-9.1,9.1-9.1s9.1,4.1,9.1,9.1-4.1,9.1-9.1,9.1-9.1-4.1-9.1-9.1Z"/>
            <circle class="cls-12" cx="72.2" cy="49.3" r="7.5"/>
            <circle class="cls-4" cx="74.5" cy="45.8" r="2"/>
          </g>
        </g>
      </g>
      <g id="Avatar6-3" class="cls-15">
        <g>
          <path class="cls-7" d="M20.9,75.5v-14.8h35v1.9l-32.3,14.6c-1.3.6-2.7-.4-2.7-1.8h0Z"/>
          <path class="cls-7" d="M20.9,31.3v14.8h35v-1.9l-32.3-14.6c-1.3-.6-2.7.4-2.7,1.8h0Z"/>
          <path class="cls-2" d="M11.4,61.9v-16.9l37.7-2c9.9-.5,19.8.6,29.4,3.3l12.2,3.4c3.8,1.1,3.8,6.4,0,7.4l-12.2,3.4c-9.5,2.7-19.5,3.8-29.4,3.3l-37.7-2h0Z"/>
          <g>
            <path class="cls-11" d="M54.5,63.9h2.1v-21h-2.1v21Z"/>
            <path class="cls-11" d="M62.4,43.3c-.7,0-1.4,0-2.1-.2v20.6c.7,0,1.4,0,2.1-.2v-20.3h0Z"/>
          </g>
          <rect class="cls-5" x="8.1" y="47.8" width="3.4" height="11.3"/>
          <path class="cls-7" d="M8.1,55.3v-3.8h22.3c1.1,0,1.9.9,1.9,1.9h0c0,1.1-.9,1.9-1.9,1.9,0,0-22.3,0-22.3,0Z"/>
          <polygon class="cls-13" points="38.7 61.1 38.7 45.7 46.5 45.3 46.5 61.5 38.7 61.1"/>
          <path class="cls-1" d="M8.9,53.4c0,.5-.1,1-.2,1.6-.1,1.4-.2,2.7-.3,4.1h2.9v2.8l37.7,2c9.9.5,19.8-.6,29.4-3.3l12.2-3.4c1.9-.5,2.8-2.1,2.8-3.7H8.9Z"/>
          <g>
            <path class="cls-5" d="M51.3,53.4c0-3.8,3.1-7,7-7s7,3.1,7,7-3.1,7-7,7-7-3.1-7-7Z"/>
            <circle class="cls-12" cx="58.2" cy="53.4" r="5.7"/>
            <path class="cls-4" d="M60,52.2c-.8,0-1.5-.7-1.5-1.5s.7-1.5,1.5-1.5,1.5.7,1.5,1.5-.7,1.5-1.5,1.5Z"/>
          </g>
        </g>
      </g>
    </g>
  </g>
  <g id="_4" data-name=" 4">
    <g class="cls-14">
      <g id="Avatar2-4" class="cls-15">
        <g>
          <path class="cls-2" d="M64.1,87.2h-28.2v-39c0-10.1,2-20,5.8-29.3l4.7-11.3c1.3-3.2,5.8-3.2,7.2,0l4.7,11.3c3.9,9.3,5.8,19.3,5.8,29.3v39Z"/>
          <path class="cls-2" d="M92.8,78.4h-8.4v-11.5c0-2.3,1.9-4.2,4.2-4.2h0c2.3,0,4.2,1.9,4.2,4.2,0,0,0,11.5,0,11.5Z"/>
          <rect class="cls-11" x="35.9" y="58.8" width="28.2" height="1.6"/>
          <rect class="cls-13" x="38.1" y="62.6" width="23.8" height="9.3"/>
          <rect class="cls-5" x="39.5" y="87.3" width="21.1" height="4.9"/>
          <polygon class="cls-7" points="84.4 75.4 64.1 75.4 64.1 55.8 84.4 68.6 84.4 75.4"/>
          <polygon class="cls-6" points="64.1 55.8 64.1 58.8 84.4 71.6 84.4 68.6 64.1 55.8"/>
          <polygon class="cls-7" points="15.6 75.4 35.9 75.4 35.9 55.8 15.6 68.6 15.6 75.4"/>
          <rect class="cls-5" x="85.5" y="78.3" width="6.3" height="2.1"/>
          <rect class="cls-11" x="84.4" y="70.3" width="8.4" height="1.6"/>
          <rect class="cls-11" x="84.4" y="73.8" width="8.4" height="1.6"/>
          <path class="cls-2" d="M7.2,78.4h8.4v-11.5c0-2.3-1.9-4.2-4.2-4.2h0c-2.3,0-4.2,1.9-4.2,4.2,0,0,0,11.5,0,11.5Z"/>
          <rect class="cls-5" x="8.2" y="78.3" width="6.3" height="2.1"/>
          <rect class="cls-11" x="7.2" y="70.3" width="8.4" height="1.6"/>
          <rect class="cls-11" x="7.2" y="73.8" width="8.4" height="1.6"/>
          <path class="cls-1" d="M50,91.3c3.5-.2,7.1-.5,10.5.5v-4.6h3.6v-39c0-10.1-2-20-5.8-29.3l-4.7-11.3c-.7-1.6-2.1-2.4-3.6-2.4v86.1Z"/>
          <polygon class="cls-6" points="35.9 55.8 35.9 58.8 15.6 71.6 15.6 68.6 35.9 55.8"/>
          <g>
            <path class="cls-5" d="M50,48.7c-5.3,0-9.6-4.3-9.6-9.6s4.3-9.6,9.6-9.6,9.6,4.3,9.6,9.6-4.3,9.6-9.6,9.6Z"/>
            <circle class="cls-12" cx="50" cy="39" r="7.9"/>
            <path class="cls-4" d="M48.4,36.6c0,1.2-.9,2.1-2.1,2.1s-2.1-.9-2.1-2.1.9-2.1,2.1-2.1,2.1.9,2.1,2.1Z"/>
          </g>
        </g>
      </g>
      <g id="Avatar1-4" class="cls-15">
        <g>
          <rect class="cls-5" x="37.1" y="91.5" width="19.6" height="3.3" transform="translate(-1 .5) rotate(-.6)"/>
          <path class="cls-8" d="M60.9,91.3l-27.6.3-.6-55.7c0-11,2.5-21.9,7.7-31.6h0c2.5-4.7,9.1-4.7,11.7,0h0c5.3,9.6,8.2,20.5,8.3,31.5l.6,55.7h0s0-.2-.1-.2Z"/>
          <rect class="cls-11" x="32.9" y="51.3" width="27.6" height="2.2" transform="translate(-.5 .5) rotate(-.6)"/>
          <rect class="cls-11" x="33" y="61.7" width="27.6" height="2.2" transform="translate(-.7 .5) rotate(-.6)"/>
          <rect class="cls-11" x="33" y="67" width="27.6" height="2.2" transform="translate(-.7 .5) rotate(-.6)"/>
          <path class="cls-11" d="M46.7,58.8c-3.5,0-6.3-2.8-6.4-6.3s2.8-6.4,6.3-6.4,6.3,2.8,6.4,6.3c0,3.5-2.8,6.3-6.3,6.4h0Z"/>
          <circle class="cls-10" cx="46.7" cy="52.4" r="4.6"/>
          <path class="cls-3" d="M50.9,97.9h-7.6l1.5-30.4c0-1.1.9-1.9,2-1.9h0c1.1,0,2,.8,2,1.9l2.1,30.4h0Z"/>
          <path class="cls-3" d="M60.6,65.4h0l.3,32.4h6.1l-3-29.4c-.2-1.7-1.6-3-3.3-3h-.1Z"/>
          <path class="cls-3" d="M33,65.7h0l.3,32.4h-6.1l2.5-29.3c.1-1.7,1.6-3,3.3-3h0Z"/>
          <path class="cls-1" d="M52,4.1h0c-1.3-2.3-3.6-3.4-5.9-3.4l1,95.2c.4,0,.7.2,1,.4,1.6-1.5,3.3-2.9,5.3-4.1,1.4-.8,2.7-.5,3.5.4v-1.3h4l-.6-55.7c0-11-3-21.8-8.3-31.5h0Z"/>
          <g>
            <path class="cls-5" d="M46.6,41.4c-5.1,0-9.3-4-9.3-9.1s4-9.3,9.1-9.3,9.3,4,9.3,9.1-4,9.3-9.1,9.3h0Z"/>
            <circle class="cls-12" cx="46.5" cy="32.2" r="7.5"/>
            <path class="cls-4" d="M44.9,29.9c0,1.1-.9,2-2,2s-2-.9-2-2,.9-2,2-2,2,.9,2,2Z"/>
          </g>
        </g>
      </g>
      <g id="Avatar3-4" class="cls-15">
        <g>
          <path class="cls-2" d="M62.3,83.8h-28.1v-40.5c0-11.1,2.4-22.1,7.1-32.2l3.5-7.7c1.4-3,5.6-3,6.9,0l3.5,7.7c4.7,10.1,7.1,21.1,7.1,32.2,0,0,0,40.5,0,40.5Z"/>
          <g>
            <rect class="cls-11" x="34.2" y="44.2" width="28.1" height="1.6"/>
            <path class="cls-11" d="M34.5,37.2v1.6h27.8v-1.6h-27.8Z"/>
          </g>
          <rect class="cls-11" x="34.2" y="55" width="28.1" height="1.6"/>
          <rect class="cls-13" x="35.7" y="58.3" width="25.1" height="13.3"/>
          <rect class="cls-5" x="38.3" y="83.8" width="19.9" height="4.5"/>
          <rect class="cls-5" x="44.7" y="97" width="7.3" height="2.3"/>
          <rect class="cls-5" x="73" y="83.1" width="7.3" height="2.3"/>
          <path class="cls-7" d="M53,97h-9.4l3-31.2c0-.9.8-1.5,1.7-1.5h0c.9,0,1.6.7,1.7,1.5l3,31.2h0Z"/>
          <polygon class="cls-7" points="72.3 80.1 62.3 80.1 62.3 58.3 72.3 74.3 72.3 80.1"/>
          <path class="cls-2" d="M76.6,58.3h0c-2.4,0-4.3,1.9-4.3,4.3v20.5h8.7v-20.5c0-2.4-1.9-4.3-4.3-4.3h0Z"/>
          <rect class="cls-11" x="72.3" y="67.6" width="8.7" height="1.6"/>
          <rect class="cls-11" x="72.3" y="71.2" width="8.7" height="1.6"/>
          <rect class="cls-5" x="16.3" y="83.1" width="7.3" height="2.3"/>
          <polygon class="cls-7" points="24.3 80.1 34.2 80.1 34.2 58.3 24.3 74.3 24.3 80.1"/>
          <path class="cls-2" d="M19.9,58.3h0c2.4,0,4.3,1.9,4.3,4.3v20.5h-8.7v-20.5c0-2.4,1.9-4.3,4.3-4.3h0Z"/>
          <rect class="cls-11" x="15.6" y="67.6" width="8.7" height="1.6"/>
          <rect class="cls-11" x="15.6" y="71.2" width="8.7" height="1.6"/>
          <path class="cls-1" d="M48.3,97.4h1.4c-.2-.3-.4-.5-.6-.7-.4-.4.2-1.1.7-.7.2.2.5.4.7.7.2.2.5.4.7.6.2-.2.4-.3.6-.4.4-.3.9-.4,1.4-.2l-.8-8.2h6.1v-4.5h4.1v-40.5c0-11.1-2.4-22.1-7.1-32.2l-3.5-7.7c-.7-1.5-2.1-2.2-3.5-2.2v96h-.2Z"/>
          <g>
            <path class="cls-5" d="M48.3,50.1c-5,0-9.1-4.1-9.1-9.1s4.1-9.1,9.1-9.1,9.1,4.1,9.1,9.1-4.1,9.1-9.1,9.1h0Z"/>
            <circle class="cls-12" cx="48.3" cy="41.1" r="7.4"/>
            <circle class="cls-4" cx="44.8" cy="38.8" r="2"/>
          </g>
        </g>
      </g>
      <g id="Avatar_4-4" data-name="Avatar 4-4">
        <g>
          <path class="cls-2" d="M49.5,89.2h0c-7.5,0-13.6-6.1-13.6-13.6V17.5c0-2.2,1-4.2,2.7-5.5l6.8-5.1c2.4-1.8,5.7-1.8,8.1,0l6.8,5.1c1.7,1.3,2.7,3.3,2.7,5.5v58.1c0,7.5-6.1,13.6-13.6,13.6h0Z"/>
          <path class="cls-11" d="M56.3,98h-13.6v-13c0-3.8,3-6.8,6.8-6.8h0c3.8,0,6.8,3,6.8,6.8,0,0,0,13,0,13Z"/>
          <rect class="cls-2" x="42.7" y="88.8" width="13.6" height="1.6"/>
          <rect class="cls-2" x="42.7" y="85.3" width="13.6" height="1.6"/>
          <rect class="cls-11" x="35.9" y="56.1" width="27.3" height="1.6"/>
          <rect class="cls-13" x="37.7" y="60.6" width="23.7" height="5.6"/>
          <rect class="cls-11" x="35.9" y="50.5" width="27.3" height="1.6"/>
          <rect class="cls-11" x="35.9" y="31.1" width="27.3" height="1.6"/>
          <polygon class="cls-7" points="77.2 92.8 63.1 92.8 63.1 25.3 77.2 92.8"/>
          <rect class="cls-5" x="65.3" y="92.8" width="9.7" height="2.8"/>
          <polygon class="cls-7" points="21.8 92.8 35.9 92.8 35.9 25.3 21.8 92.8"/>
          <rect class="cls-5" x="23.9" y="92.8" width="9.7" height="2.8"/>
          <path class="cls-1" d="M49.5,97.9h1.3c1.8,0,3.7-.2,5.5,0v-10.3c4.1-2.4,6.8-6.8,6.8-11.8V17.6c0-2.2-1-4.2-2.7-5.5l-6.8-5.1c-1.2-.9-2.6-1.4-4.1-1.4v92.3Z"/>
          <g>
            <path class="cls-5" d="M49.5,41.5c-5.2,0-9.5-4.3-9.5-9.5s4.3-9.5,9.5-9.5,9.5,4.3,9.5,9.5-4.3,9.5-9.5,9.5Z"/>
            <circle class="cls-12" cx="49.5" cy="31.9" r="7.8"/>
            <path class="cls-4" d="M47.9,29.5c0,1.1-.9,2.1-2.1,2.1s-2.1-.9-2.1-2.1.9-2.1,2.1-2.1,2.1.9,2.1,2.1Z"/>
          </g>
        </g>
      </g>
      <g id="Avatar_5-4" data-name="Avatar 5-4" class="cls-15">
        <g>
          <path class="cls-2" d="M63.9,61.3l-14.6,24.4-14.6-24.4V16.5c0-1.8.7-3.6,1.9-4.9l7.3-8c2.9-3.2,7.9-3.2,10.8,0l7.3,8c1.2,1.3,1.9,3.1,1.9,4.9,0,0,0,44.8,0,44.8Z"/>
          <path class="cls-7" d="M51.4,84.7h-4.3v-25.4c0-1.2,1-2.2,2.2-2.2h0c1.2,0,2.2,1,2.2,2.2v25.4h-.1Z"/>
          <path class="cls-7" d="M63.9,61.3s11.7,7.4,15.8,26.2c1,4.4-4,7.8-7.8,5.2-5.4-3.6-13-7.1-22.6-7.1l14.6-24.4h0Z"/>
          <path class="cls-7" d="M34.6,61.3s-11.7,7.4-15.8,26.2c-1,4.4,4,7.8,7.8,5.2,5.4-3.6,13-7.1,22.6-7.1l-14.6-24.4h0Z"/>
          <path class="cls-11" d="M56.5,98.5h-14.6v-13.9c0-4,3.3-7.3,7.3-7.3h0c4,0,7.3,3.3,7.3,7.3v13.9Z"/>
          <rect class="cls-2" x="42" y="88.6" width="14.6" height="1.7"/>
          <rect class="cls-2" x="42" y="84.9" width="14.6" height="1.7"/>
          <rect class="cls-11" x="34.6" y="46.6" width="29.2" height="2.3"/>
          <rect class="cls-11" x="34.6" y="39.4" width="29.2" height="2.3"/>
          <path class="cls-9" d="M79.6,87.6c-4.1-18.8-15.8-26.2-15.8-26.2l3.7,28.9c1.6.8,3.1,1.7,4.4,2.6,3.7,2.5,8.6-.9,7.7-5.3h0Z"/>
          <path class="cls-9" d="M18.9,87.6c4.1-18.8,15.8-26.2,15.8-26.2l-3.7,28.9c-1.6.8-3.1,1.7-4.4,2.6-3.7,2.5-8.6-.9-7.7-5.3h0Z"/>
          <path class="cls-1" d="M49.2,98.1h7.2v-13.4c0-2.4-1.2-4.6-3-5.9l10.4-17.3V16.6c0-1.8-.7-3.6-1.9-4.9l-7.3-8c-1.4-1.6-3.4-2.4-5.4-2.4v96.8Z"/>
          <g>
            <path class="cls-5" d="M49.2,35.7c-5.5,0-10.1-4.5-10.1-10.1s4.5-10.1,10.1-10.1,10.1,4.5,10.1,10.1-4.5,10.1-10.1,10.1Z"/>
            <circle class="cls-12" cx="49.2" cy="25.6" r="8.2"/>
            <circle class="cls-4" cx="45.4" cy="23" r="2.2"/>
          </g>
        </g>
      </g>
      <g id="Avatar6-4" class="cls-15">
        <g>
          <path class="cls-7" d="M78,82h-16.2v-38.5h2.1l16,35.5c.6,1.4-.4,3-1.9,3h0Z"/>
          <path class="cls-7" d="M29.5,82h16.2v-38.5h-2.1l-16.1,35.5c-.6,1.4.4,3,1.9,3,0,0,.1,0,0,0h.1Z"/>
          <path class="cls-2" d="M63,92.4h-18.6l-2.2-41.5c-.6-10.9.6-21.8,3.6-32.3l3.8-13.4c1.2-4.1,7-4.1,8.2,0l3.8,13.4c3,10.5,4.2,21.4,3.6,32.3l-2.2,41.5h0Z"/>
          <g>
            <path class="cls-11" d="M65.3,45.1v-2.3h-23.1v2.3h23.1Z"/>
            <path class="cls-11" d="M42.6,36.4c0,.8-.2,1.5-.2,2.3h22.7c0-.8,0-1.5-.2-2.3h-22.3Z"/>
          </g>
          <rect class="cls-5" x="47.5" y="92.4" width="12.4" height="3.7"/>
          <path class="cls-7" d="M55.8,96.1h-4.2v-24.6c0-1.2.9-2.1,2.1-2.1h0c1.2,0,2.1.9,2.1,2.1,0,0,0,24.6,0,24.6Z"/>
          <polygon class="cls-13" points="62.2 62.5 45.3 62.5 44.8 53.8 62.6 53.8 62.2 62.5"/>
          <path class="cls-1" d="M53.7,95.2c.6,0,1.1,0,1.7.2,1.5.2,3,.2,4.5.3v-3.2h3.1l2.2-41.5c.6-10.9-.6-21.8-3.6-32.3l-3.8-13.4c-.6-2.1-2.3-3.1-4.1-3.1v93Z"/>
          <g>
            <path class="cls-5" d="M53.7,48.6c-4.2,0-7.7-3.4-7.7-7.7s3.4-7.7,7.7-7.7,7.7,3.4,7.7,7.7-3.4,7.7-7.7,7.7Z"/>
            <circle class="cls-12" cx="53.7" cy="40.9" r="6.3"/>
            <path class="cls-4" d="M52.4,39c0,.9-.8,1.7-1.7,1.7s-1.7-.8-1.7-1.7.8-1.7,1.7-1.7,1.7.8,1.7,1.7Z"/>
          </g>
        </g>
      </g>
    </g>
  </g>
  <g id="_3" data-name=" 3" class="cls-15">
    <g class="cls-14">
      <g id="Avatar2-5" class="cls-15">
        <g>
          <path class="cls-2" d="M13.8,63.7v-27.4h37.9c9.8,0,19.5,1.9,28.5,5.7l11,4.6c3.1,1.3,3.1,5.7,0,7l-11,4.6c-9,3.7-18.7,5.7-28.5,5.7H13.8v-.2Z"/>
          <path class="cls-2" d="M22.4,91.6v-8.2h11.2c2.3,0,4.1,1.8,4.1,4.1h0c0,2.3-1.8,4.1-4.1,4.1,0,0-11.2,0-11.2,0Z"/>
          <rect class="cls-11" x="39.9" y="36.3" width="1.6" height="27.4"/>
          <rect class="cls-13" x="28.7" y="38.4" width="9" height="23.2"/>
          <rect class="cls-5" x="9" y="39.8" width="4.8" height="20.5"/>
          <polygon class="cls-7" points="25.3 83.4 25.3 63.7 44.3 63.7 31.9 83.4 25.3 83.4"/>
          <polygon class="cls-6" points="44.3 63.7 41.5 63.7 29 83.4 31.9 83.4 44.3 63.7"/>
          <polygon class="cls-7" points="25.3 16.6 25.3 36.3 44.3 36.3 31.9 16.6 25.3 16.6"/>
          <rect class="cls-5" x="20.4" y="84.5" width="2" height="6.1"/>
          <rect class="cls-11" x="28.7" y="83.4" width="1.6" height="8.2"/>
          <rect class="cls-11" x="25.3" y="83.4" width="1.6" height="8.2"/>
          <path class="cls-2" d="M22.4,8.4v8.2h11.2c2.3,0,4.1-1.8,4.1-4.1h0c0-2.3-1.8-4.1-4.1-4.1,0,0-11.2,0-11.2,0Z"/>
          <rect class="cls-5" x="20.4" y="9.4" width="2" height="6.1"/>
          <rect class="cls-11" x="28.7" y="8.4" width="1.6" height="8.2"/>
          <rect class="cls-11" x="25.3" y="8.4" width="1.6" height="8.2"/>
          <path class="cls-1" d="M9.8,50c.1,3.4.5,6.9-.5,10.2h4.5v3.5h37.9c9.8,0,19.5-1.9,28.5-5.7l11-4.6c1.6-.6,2.3-2.1,2.3-3.5H9.8Z"/>
          <polygon class="cls-6" points="44.3 36.3 41.5 36.3 29 16.6 31.9 16.6 44.3 36.3"/>
          <g>
            <path class="cls-5" d="M51.3,50c0-5.2,4.2-9.4,9.4-9.4s9.4,4.2,9.4,9.4-4.2,9.4-9.4,9.4-9.4-4.2-9.4-9.4Z"/>
            <circle class="cls-12" cx="60.7" cy="50" r="7.7"/>
            <path class="cls-4" d="M63,48.4c-1.1,0-2-.9-2-2s.9-2,2-2,2,.9,2,2-.9,2-2,2Z"/>
          </g>
        </g>
      </g>
      <g id="Avatar1-5" class="cls-15">
        <g>
          <rect class="cls-5" x="6.5" y="37.3" width="3.2" height="19.1" transform="translate(-.5 0) rotate(-.6)"/>
          <path class="cls-8" d="M9.8,60.6l-.3-26.8,54.2-.5c10.7,0,21.3,2.4,30.7,7.4h0c4.5,2.4,4.6,8.9,0,11.3h0c-9.4,5.2-19.9,7.9-30.6,8.1l-54.2.5s.2,0,.2,0Z"/>
          <rect class="cls-11" x="46.6" y="33.4" width="2.2" height="26.8" transform="translate(-.5 .5) rotate(-.6)"/>
          <rect class="cls-11" x="36.5" y="33.4" width="2.2" height="26.8" transform="translate(-.5 .4) rotate(-.6)"/>
          <rect class="cls-11" x="31.4" y="33.5" width="2.2" height="26.8" transform="translate(-.5 .3) rotate(-.6)"/>
          <path class="cls-11" d="M41.5,46.8c0-3.4,2.7-6.2,6.1-6.2s6.2,2.7,6.2,6.1-2.7,6.2-6.1,6.2-6.2-2.7-6.2-6.1h0Z"/>
          <circle class="cls-10" cx="47.7" cy="46.8" r="4.5"/>
          <path class="cls-3" d="M3.5,50.9v-7.4l29.6,1.4c1,0,1.8.9,1.9,1.9h0c0,1-.8,1.9-1.8,2l-29.6,2h-.1Z"/>
          <path class="cls-3" d="M35,60.3h0l-31.5.3v5.9l28.5-3c1.7-.2,2.9-1.6,2.9-3.2h0Z"/>
          <path class="cls-3" d="M34.8,33.5h0l-31.5.3v-5.9l28.5,2.4c1.7.1,2.9,1.5,3,3.2h0Z"/>
          <path class="cls-1" d="M94.6,52h0c2.2-1.2,3.3-3.5,3.3-5.7l-92.5.9c0,.4-.2.7-.4,1,1.5,1.6,2.8,3.2,3.9,5.1.8,1.4.5,2.6-.4,3.4h1.3v3.9l54.2-.5c10.7,0,21.2-2.9,30.6-8.1h0Z"/>
          <g>
            <path class="cls-5" d="M58.3,46.6c0-4.9,3.9-9,8.9-9.1,5,0,9,3.9,9.1,8.9,0,4.9-3.9,9-8.9,9.1-4.9,0-9-3.9-9.1-8.9h0Z"/>
            <circle class="cls-12" cx="67.3" cy="46.6" r="7.3"/>
            <path class="cls-4" d="M69.5,45c-1.1,0-2-.8-2-1.9s.8-2,1.9-2,2,.8,2,1.9-.8,2-1.9,2Z"/>
          </g>
        </g>
      </g>
      <g id="Avatar3-5">
        <g>
          <path class="cls-2" d="M17.1,62v-27.3h39.3c10.8,0,21.5,2.3,31.3,6.9l7.4,3.4c2.9,1.3,2.9,5.4,0,6.7l-7.4,3.4c-9.8,4.5-20.5,6.9-31.3,6.9,0,0-39.3,0-39.3,0Z"/>
          <g>
            <rect class="cls-11" x="54.1" y="34.7" width="1.6" height="27.3"/>
            <path class="cls-11" d="M62.4,35h-1.6v27h1.6v-27Z"/>
          </g>
          <rect class="cls-11" x="43.6" y="34.7" width="1.6" height="27.3"/>
          <rect class="cls-13" x="29" y="36.1" width="13" height="24.4"/>
          <rect class="cls-5" x="12.7" y="38.6" width="4.4" height="19.4"/>
          <rect class="cls-5" x="2.1" y="44.8" width="2.2" height="7.1"/>
          <rect class="cls-5" x="15.6" y="72.4" width="2.2" height="7.1"/>
          <path class="cls-7" d="M4.3,52.9v-9.1l30.3,2.9c.8,0,1.5.8,1.5,1.6h0c0,.8-.6,1.5-1.5,1.6l-30.3,2.9h0Z"/>
          <polygon class="cls-7" points="20.8 71.7 20.8 62 42 62 26.4 71.7 20.8 71.7"/>
          <path class="cls-2" d="M42,75.9h0c0-2.3-1.9-4.2-4.2-4.2h-20v8.4h20c2.3,0,4.2-1.9,4.2-4.2h0Z"/>
          <rect class="cls-11" x="31.4" y="71.7" width="1.6" height="8.4"/>
          <rect class="cls-11" x="27.8" y="71.7" width="1.6" height="8.4"/>
          <rect class="cls-5" x="15.6" y="17.3" width="2.2" height="7.1"/>
          <polygon class="cls-7" points="20.8 25 20.8 34.7 42 34.7 26.4 25 20.8 25"/>
          <path class="cls-2" d="M42,20.8h0c0,2.3-1.9,4.2-4.2,4.2h-20v-8.4h20c2.3,0,4.2,1.9,4.2,4.2h0Z"/>
          <rect class="cls-11" x="31.4" y="16.6" width="1.6" height="8.4"/>
          <rect class="cls-11" x="27.8" y="16.6" width="1.6" height="8.4"/>
          <path class="cls-1" d="M3.9,48.3v1.3h0c.2-.3.4-.5.6-.7.4-.4,1,.2.6.6-.2.2-.4.4-.6.7-.2.2-.4.5-.6.7,0,.2.3.3.4.5.3.4.4.9.2,1.4l8-.8v6h4.4v3.9h39.3c10.8,0,21.5-2.3,31.3-6.9l7.4-3.4c1.4-.7,2.2-2,2.2-3.4H3.9Z"/>
          <g>
            <path class="cls-5" d="M49.9,48.3c0-4.9,3.9-8.8,8.8-8.8s8.8,3.9,8.8,8.8-3.9,8.8-8.8,8.8-8.8-3.9-8.8-8.8h0Z"/>
            <circle class="cls-12" cx="58.7" cy="48.3" r="7.2"/>
            <circle class="cls-4" cx="60.9" cy="44.9" r="1.9"/>
          </g>
        </g>
      </g>
      <g id="Avatar_4-5" data-name="Avatar 4-5" class="cls-15">
        <g>
          <path class="cls-2" d="M11.9,49.5h0c0-7.3,5.9-13.2,13.2-13.2h56.5c2.1,0,4.1,1,5.3,2.7l4.9,6.6c1.8,2.3,1.8,5.6,0,7.9l-4.9,6.6c-1.3,1.7-3.2,2.7-5.3,2.7H25.1c-7.3,0-13.2-5.9-13.2-13.2h0Z"/>
          <path class="cls-11" d="M3.3,56.1v-13.2h12.6c3.6,0,6.6,3,6.6,6.6h0c0,3.6-3,6.6-6.6,6.6,0,0-12.6,0-12.6,0Z"/>
          <rect class="cls-2" x="10.7" y="42.9" width="1.5" height="13.2"/>
          <rect class="cls-2" x="14.1" y="42.9" width="1.5" height="13.2"/>
          <rect class="cls-11" x="42.5" y="36.3" width="1.5" height="26.5"/>
          <rect class="cls-13" x="34.3" y="38" width="5.4" height="23"/>
          <rect class="cls-11" x="47.9" y="36.3" width="1.5" height="26.5"/>
          <rect class="cls-11" x="66.8" y="36.3" width="1.5" height="26.5"/>
          <polygon class="cls-7" points="8.4 76.5 8.4 62.8 74 62.8 8.4 76.5"/>
          <rect class="cls-5" x="5.6" y="64.9" width="2.8" height="9.5"/>
          <polygon class="cls-7" points="8.4 22.6 8.4 36.3 74 36.3 8.4 22.6"/>
          <rect class="cls-5" x="5.6" y="24.7" width="2.8" height="9.5"/>
          <path class="cls-1" d="M3.5,49.5v1.3c0,1.8.2,3.6,0,5.3h10c2.3,4,6.6,6.6,11.5,6.6h56.5c2.1,0,4.1-1,5.3-2.7l4.9-6.6c.9-1.2,1.3-2.6,1.3-4H3.5Z"/>
          <g>
            <path class="cls-5" d="M58.3,49.5c0-5.1,4.1-9.2,9.2-9.2s9.2,4.1,9.2,9.2-4.1,9.2-9.2,9.2-9.2-4.1-9.2-9.2Z"/>
            <circle class="cls-12" cx="67.6" cy="49.6" r="7.6"/>
            <path class="cls-4" d="M69.9,48c-1.1,0-2-.9-2-2s.9-2,2-2,2,.9,2,2-.9,2-2,2Z"/>
          </g>
        </g>
      </g>
      <g id="Avatar_5-5" data-name="Avatar 5-5" class="cls-15">
        <g>
          <path class="cls-2" d="M39,63.5l-23.7-14.2,23.7-14.2h43.5c1.8,0,3.5.7,4.8,1.8l7.8,7.1c3.1,2.8,3.1,7.7,0,10.5l-7.8,7.1c-1.3,1.2-3,1.8-4.8,1.8h-43.5Z"/>
          <path class="cls-7" d="M16.3,51.4v-4.2h24.7c1.2,0,2.1.9,2.1,2.1h0c0,1.2-.9,2.1-2.1,2.1,0,0-24.7,0-24.7,0Z"/>
          <path class="cls-7" d="M39,63.5s-7.2,11.4-25.5,15.3c-4.3.9-7.6-3.9-5.1-7.5,3.5-5.2,6.9-12.7,6.9-22l23.7,14.2h0Z"/>
          <path class="cls-7" d="M39,35.1s-7.2-11.4-25.5-15.3c-4.3-.9-7.6,3.9-5.1,7.5,3.5,5.2,6.9,12.7,6.9,22l23.7-14.2Z"/>
          <path class="cls-11" d="M2.9,56.4v-14.2h13.5c3.9,0,7.1,3.2,7.1,7.1h0c0,3.9-3.2,7.1-7.1,7.1,0,0-13.5,0-13.5,0Z"/>
          <rect class="cls-2" x="10.8" y="42.2" width="1.6" height="14.2"/>
          <rect class="cls-2" x="14.5" y="42.2" width="1.6" height="14.2"/>
          <rect class="cls-11" x="51.1" y="35.1" width="2.3" height="28.4"/>
          <rect class="cls-11" x="58.1" y="35.1" width="2.3" height="28.4"/>
          <path class="cls-9" d="M13.5,78.8c18.3-4,25.5-15.3,25.5-15.3l-28.1,3.6c-.8,1.6-1.7,3-2.5,4.3-2.4,3.6.9,8.4,5.1,7.5h0Z"/>
          <path class="cls-9" d="M13.5,19.7c18.3,4,25.5,15.3,25.5,15.3l-28.1-3.6c-.8-1.6-1.7-3-2.5-4.3-2.4-3.6.9-8.4,5.1-7.5h0Z"/>
          <path class="cls-1" d="M3.3,49.3v7h13c2.4,0,4.5-1.2,5.7-3l16.8,10.1h43.5c1.8,0,3.5-.7,4.8-1.8l7.8-7.1c1.6-1.4,2.3-3.3,2.3-5.3H3.3Z"/>
          <g>
            <path class="cls-5" d="M63.9,49.3c0-5.4,4.4-9.8,9.8-9.8s9.8,4.4,9.8,9.8-4.4,9.8-9.8,9.8-9.8-4.4-9.8-9.8Z"/>
            <circle class="cls-12" cx="73.7" cy="49.2" r="8"/>
            <circle class="cls-4" cx="76.2" cy="45.5" r="2.1"/>
          </g>
        </g>
      </g>
      <g id="Avatar6-5" class="cls-15">
        <g>
          <path class="cls-7" d="M18.9,77.2v-15.8h37.4v2.1l-34.5,15.6c-1.4.6-2.9-.4-2.9-1.9h0Z"/>
          <path class="cls-7" d="M18.9,30v15.8h37.4v-2.1l-34.5-15.6c-1.4-.6-2.9.4-2.9,1.9h0Z"/>
          <path class="cls-2" d="M8.8,62.7v-18.1l40.3-2.1c10.6-.6,21.2.6,31.4,3.5l13,3.7c4,1.1,4,6.8,0,8l-13,3.7c-10.2,2.9-20.8,4-31.4,3.5l-40.3-2.1h0Z"/>
          <g>
            <path class="cls-11" d="M54.8,64.9h2.2v-22.5h-2.2v22.5Z"/>
            <path class="cls-11" d="M63.2,42.8c-.7,0-1.5,0-2.2-.2v22.1c.7,0,1.5,0,2.2-.2v-21.7h0Z"/>
          </g>
          <rect class="cls-5" x="5.2" y="47.6" width="3.6" height="12.1"/>
          <path class="cls-7" d="M5.2,55.7v-4.1h23.9c1.1,0,2,.9,2,2h0c0,1.1-.9,2-2,2H5.2Z"/>
          <polygon class="cls-13" points="37.9 61.8 37.9 45.4 46.3 45 46.3 62.3 37.9 61.8"/>
          <path class="cls-1" d="M6.1,53.6c0,.6,0,1.1-.2,1.7-.2,1.5-.2,2.9-.3,4.4h3.1v3l40.3,2.1c10.6.6,21.2-.6,31.4-3.5l13-3.7c2-.6,3-2.3,3-4,0,0-90.3,0-90.3,0Z"/>
          <g>
            <path class="cls-5" d="M51.4,53.6c0-4.1,3.3-7.5,7.5-7.5s7.5,3.3,7.5,7.5-3.3,7.5-7.5,7.5-7.5-3.3-7.5-7.5Z"/>
            <circle class="cls-12" cx="58.8" cy="53.6" r="6.1"/>
            <path class="cls-4" d="M60.7,52.4c-.9,0-1.6-.7-1.6-1.6s.7-1.6,1.6-1.6,1.6.7,1.6,1.6-.7,1.6-1.6,1.6Z"/>
          </g>
        </g>
      </g>
    </g>
  </g>
</svg>