<?xml version="1.0" encoding="UTF-8"?>
<svg id="Layer_1" data-name="Layer 1" xmlns="http://www.w3.org/2000/svg" version="1.1" viewBox="0 0 1080 1080">
  <defs>
    <style>
      .cls-1 {
        fill: #c2c0c9;
      }

      .cls-1, .cls-2, .cls-3, .cls-4, .cls-5, .cls-6, .cls-7, .cls-8, .cls-9, .cls-10, .cls-11, .cls-12, .cls-13 {
        stroke-width: 0px;
      }

      .cls-1, .cls-4, .cls-9, .cls-14 {
        isolation: isolate;
      }

      .cls-1, .cls-9 {
        mix-blend-mode: multiply;
      }

      .cls-2 {
        fill: #bfc1bf;
      }

      .cls-3 {
        fill: #777db0;
      }

      .cls-4 {
        mix-blend-mode: screen;
      }

      .cls-4, .cls-12 {
        fill: #25383f;
      }

      .cls-5 {
        fill: #3b4e57;
      }

      .cls-6 {
        fill: #838bb7;
      }

      .cls-7 {
        fill: #777db1;
      }

      .cls-8 {
        fill: #dbdddb;
      }

      .cls-9 {
        fill: #e6e7e7;
      }

      .cls-10 {
        fill: #9887af;
      }

      .cls-11 {
        fill: #627688;
      }

      .cls-15 {
        display: none;
      }

      .cls-13 {
        fill: #b0b0b0;
      }
    </style>
  </defs>
  <g class="cls-14">
    <g id="Avatar2" class="cls-15">
      <g>
        <path class="cls-2" d="M627.1,747.1h-164.7v-227.7c0-58.7,11.6-116.9,34-171.1l27.4-66.2c7.7-18.6,34.1-18.6,41.8,0l27.4,66.2c22.5,54.2,34,112.4,34,171.1v227.7Z"/>
        <path class="cls-2" d="M794.7,695.3h-49.2v-67c0-13.6,11-24.6,24.6-24.6h0c13.6,0,24.6,11,24.6,24.6v67h0Z"/>
        <rect class="cls-11" x="462.4" y="581" width="164.7" height="9.4"/>
        <rect class="cls-13" x="475.3" y="603.7" width="139.2" height="54"/>
        <rect class="cls-5" x="483.4" y="747.1" width="122.9" height="28.6"/>
        <polygon class="cls-7" points="745.5 677.8 627.1 677.8 627.1 563.7 745.5 638.5 745.5 677.8"/>
        <polygon class="cls-6" points="627.1 563.7 627.1 581 745.5 655.9 745.5 638.5 627.1 563.7"/>
        <polygon class="cls-7" points="344.1 677.8 462.5 677.8 462.5 563.7 344.1 638.5 344.1 677.8"/>
        <rect class="cls-5" x="751.9" y="695.3" width="36.6" height="12"/>
        <rect class="cls-11" x="745.5" y="648.4" width="49.2" height="9.4"/>
        <rect class="cls-11" x="745.5" y="668.5" width="49.2" height="9.4"/>
        <path class="cls-2" d="M294.9,695.3h49.2v-67c0-13.6-11-24.6-24.6-24.6h0c-13.6,0-24.6,11-24.6,24.6v67h0Z"/>
        <rect class="cls-5" x="301.2" y="695.3" width="36.6" height="12"/>
        <rect class="cls-11" x="294.9" y="648.3" width="49.2" height="9.4"/>
        <rect class="cls-11" x="294.9" y="668.5" width="49.2" height="9.4"/>
        <path class="cls-1" d="M544.8,770.8c20.6-.9,41.6-3,61.4,3.1v-26.9h20.9v-227.7c0-58.7-11.6-116.9-34-171.1l-27.4-66.2c-3.8-9.3-12.4-14-20.9-14v502.8Z"/>
        <polygon class="cls-6" points="462.5 563.7 462.5 581 344.1 655.9 344.1 638.5 462.5 563.7"/>
        <g>
          <path class="cls-5" d="M544.8,522c-31,0-56.3-25.2-56.3-56.3s25.2-56.3,56.3-56.3,56.3,25.2,56.3,56.3-25.2,56.3-56.3,56.3Z"/>
          <circle class="cls-12" cx="544.8" cy="465.7" r="46.1"/>
          <path class="cls-4" d="M535.3,451.4c0,6.7-5.5,12.2-12.2,12.2s-12.2-5.5-12.2-12.2,5.5-12.2,12.2-12.2,12.2,5.5,12.2,12.2Z"/>
        </g>
      </g>
    </g>
    <g id="Avatar1" class="cls-15">
      <g>
        <rect class="cls-5" x="470.6" y="771.5" width="114.4" height="19.4" transform="translate(-8.2 5.6) rotate(-.6)"/>
        <path class="cls-8" d="M608.2,770.8l-161.1,1.6-3.3-325.1c-.7-64.3,14.7-127.7,44.7-184.6h0c14.4-27.2,53.2-27.6,68.1-.7h0c31.1,56.2,47.7,119.4,48.4,183.6l3.3,325.1h0Z"/>
        <rect class="cls-11" x="444.9" y="537.2" width="161.1" height="13" transform="translate(-5.7 5.5) rotate(-.6)"/>
        <rect class="cls-11" x="445.5" y="597.6" width="161.1" height="13" transform="translate(-6.3 5.5) rotate(-.6)"/>
        <rect class="cls-11" x="445.8" y="628.5" width="161.1" height="13" transform="translate(-6.6 5.5) rotate(-.6)"/>
        <path class="cls-11" d="M525.7,580.8c-20.3.2-37-16.2-37.2-36.5s16.2-37.1,36.5-37.2c20.3-.2,37,16.2,37.2,36.5s-16.2,37-36.5,37.2h0Z"/>
        <circle class="cls-10" cx="525.5" cy="543.8" r="26.8"/>
        <path class="cls-3" d="M550.1,808.9l-44.2.4,8.6-177.8c.3-6.2,5.4-11.1,11.6-11.2h0c6.2,0,11.4,4.7,11.8,10.9l12.2,177.7h0Z"/>
        <path class="cls-3" d="M606.7,619.6h0l1.9,188.8,35.3-.3-17.7-171c-1-10-9.5-17.5-19.5-17.4h0q0,0,0,0Z"/>
        <path class="cls-3" d="M445.5,621.2h0l1.9,188.8-35.3.3,14.3-171.3c.8-10,9.1-17.7,19.1-17.8h0Z"/>
        <path class="cls-1" d="M556.5,262h0c-7.5-13.4-20.9-20.1-34.2-20l5.6,555.5c2.2.4,4.2,1.3,5.9,2.3,9.5-8.7,19.4-17.1,30.8-23.6,8.3-4.8,15.7-2.7,20.3,2.3v-7.6l23.3-.2-3.3-325.1c-.7-64.3-17.3-127.4-48.4-183.6h0Z"/>
        <g>
          <path class="cls-5" d="M524.7,479.8c-29.7.3-54.1-23.6-54.4-53.3-.3-29.7,23.6-54.1,53.3-54.4,29.7-.3,54.1,23.6,54.4,53.3.3,29.7-23.6,54.1-53.3,54.4h0q0,0,0,0Z"/>
          <circle class="cls-12" cx="524.2" cy="425.9" r="44"/>
          <path class="cls-4" d="M515,412.4c0,6.5-5.1,11.8-11.6,11.8-6.5,0-11.8-5.1-11.8-11.6s5.1-11.8,11.6-11.8c6.5,0,11.8,5.1,11.8,11.6Z"/>
        </g>
      </g>
    </g>
    <g id="Avatar3" class="cls-15">
      <g>
        <path class="cls-2" d="M616.7,727.2h-163.8v-236.2c0-64.9,14-129.1,41.2-188.1l20.6-44.7c7.9-17.2,32.4-17.2,40.3,0l20.6,44.7c27.2,59,41.2,123.1,41.2,188.1v236.2h0Z"/>
        <g>
          <rect class="cls-11" x="452.9" y="495.7" width="163.8" height="9.3"/>
          <path class="cls-11" d="M454.5,455.2c-.3,3.1-.5,6.2-.8,9.3h162.1c-.2-3.1-.5-6.2-.8-9.3h-160.6Z"/>
        </g>
        <rect class="cls-11" x="452.9" y="558.7" width="163.8" height="9.3"/>
        <rect class="cls-13" x="461.4" y="578" width="146.7" height="77.8"/>
        <rect class="cls-5" x="476.6" y="727.2" width="116.4" height="26.3"/>
        <rect class="cls-5" x="513.6" y="804.2" width="42.3" height="13.2"/>
        <rect class="cls-5" x="679" y="723" width="42.3" height="13.2"/>
        <path class="cls-7" d="M562.1,804.2h-54.6l17.6-181.9c.5-5,4.7-8.8,9.7-8.8h0c5,0,9.3,3.8,9.7,8.8l17.6,181.9h0Z"/>
        <polygon class="cls-7" points="674.8 705.1 616.7 705.1 616.7 578 674.8 671.5 674.8 705.1"/>
        <path class="cls-2" d="M700.1,578h0c-13.9,0-25.3,11.3-25.3,25.3v119.8h50.5v-119.8c0-13.9-11.3-25.3-25.3-25.3h0Z"/>
        <rect class="cls-11" x="674.9" y="632.2" width="50.5" height="9.3"/>
        <rect class="cls-11" x="674.9" y="653.5" width="50.5" height="9.3"/>
        <rect class="cls-5" x="348.2" y="723" width="42.3" height="13.2"/>
        <polygon class="cls-7" points="394.7 705.1 452.9 705.1 452.9 578 394.7 671.5 394.7 705.1"/>
        <path class="cls-2" d="M369.4,578h0c13.9,0,25.3,11.3,25.3,25.3v119.8h-50.5v-119.8c0-13.9,11.3-25.3,25.3-25.3h0s0,0,0,0Z"/>
        <rect class="cls-11" x="344.1" y="632.2" width="50.5" height="9.3"/>
        <rect class="cls-11" x="344.1" y="653.5" width="50.5" height="9.3"/>
        <path class="cls-1" d="M534.8,806.4c2.6,0,5.3-.1,8-.2-.2-.2-.4-.4-.6-.6-1.3-1.2-2.5-2.4-3.8-3.6-2.5-2.5,1.3-6.3,3.9-3.9,1.4,1.3,2.7,2.5,4,3.8,1.4,1.3,2.7,2.4,4.2,3.5,1-.9,2.1-1.8,3.2-2.5,2.5-1.6,5.3-2.2,8.2-1.3l-4.7-48h35.8v-26.3h23.7v-236.2c0-64.9-14-129.1-41.2-188.1l-20.6-44.7c-3.9-8.6-12.1-12.9-20.2-12.9v561h0Z"/>
        <g>
          <path class="cls-5" d="M534.8,530.5c-29.1,0-52.8-23.7-52.8-52.8s23.7-52.8,52.8-52.8,52.8,23.7,52.8,52.8-23.7,52.8-52.8,52.8h0Z"/>
          <circle class="cls-12" cx="534.8" cy="477.7" r="43.2" transform="translate(-181.1 518) rotate(-45)"/>
          <circle class="cls-4" cx="514.4" cy="464.2" r="11.5"/>
        </g>
      </g>
    </g>
    <g id="Avatar_4" data-name="Avatar 4" class="cls-15">
      <g>
        <path class="cls-2" d="M541.9,758.5h0c-43.9,0-79.5-35.6-79.5-79.5v-339.2c0-12.6,5.9-24.4,16-31.9l39.8-29.7c14.1-10.5,33.5-10.5,47.6,0l39.8,29.7c10,7.5,16,19.3,16,31.9v339.2c0,43.9-35.6,79.5-79.5,79.5h0Z"/>
        <path class="cls-11" d="M581.5,810h-79.4v-75.7c0-21.9,17.8-39.7,39.7-39.7h0c21.9,0,39.7,17.8,39.7,39.7v75.7h0Z"/>
        <rect class="cls-2" x="502.2" y="756.6" width="79.4" height="9.1"/>
        <rect class="cls-2" x="502.2" y="736.1" width="79.4" height="9.1"/>
        <rect class="cls-11" x="462.4" y="565.4" width="159.1" height="9.1"/>
        <rect class="cls-13" x="472.8" y="591.7" width="138.2" height="32.4"/>
        <rect class="cls-11" x="462.4" y="533.1" width="159.1" height="9.1"/>
        <rect class="cls-11" x="462.3" y="419.9" width="159.1" height="9.1"/>
        <polygon class="cls-7" points="703.7 779.5 621.4 779.5 621.4 385.3 703.7 779.5"/>
        <rect class="cls-5" x="634.1" y="779.5" width="56.9" height="16.6"/>
        <polygon class="cls-7" points="380.1 779.5 462.3 779.5 462.3 385.3 380.1 779.5"/>
        <rect class="cls-5" x="392.8" y="779.5" width="56.9" height="16.6"/>
        <path class="cls-1" d="M541.9,809.1h6c.4-.3,1-.5,1.6-.5,10.6,0,21.3-1,32-.7v-60c23.8-13.8,39.9-39.4,39.9-68.9v-339.2c0-12.6-5.9-24.4-16-31.9l-39.8-29.7c-7.1-5.3-15.4-7.9-23.7-7.9v538.8Z"/>
        <g>
          <path class="cls-5" d="M541.9,479.9c-30.6,0-55.5-24.9-55.5-55.5s24.9-55.5,55.5-55.5,55.5,24.9,55.5,55.5-24.9,55.5-55.5,55.5h0Z"/>
          <circle class="cls-12" cx="542.1" cy="424.1" r="45.4"/>
          <path class="cls-4" d="M532.5,410.3c0,6.7-5.4,12.1-12.1,12.1s-12.1-5.4-12.1-12.1,5.4-12.1,12.1-12.1,12.1,5.4,12.1,12.1Z"/>
        </g>
      </g>
    </g>
    <g id="Avatar_5" data-name="Avatar 5">
      <g>
        <path class="cls-2" d="M625.7,595.8l-85.3,142.3-85.3-142.3v-261.3c0-10.6,3.9-20.8,11.1-28.6l42.6-47c16.9-18.6,46.2-18.6,63.1,0l42.6,47c7.1,7.8,11.1,18,11.1,28.6v261.3h0Z"/>
        <path class="cls-7" d="M553,732.2h-25.2v-148c0-7,5.6-12.6,12.6-12.6h0c7,0,12.6,5.6,12.6,12.6v148h0Z"/>
        <path class="cls-7" d="M625.7,595.8s68.2,43.3,92,152.9c5.6,25.9-23.3,45.4-45.3,30.6-31.4-21.1-76-41.2-132-41.2l85.3-142.3h0Z"/>
        <path class="cls-7" d="M455.2,595.8s-68.2,43.3-92,152.9c-5.6,25.9,23.3,45.4,45.3,30.6,31.4-21.1,76-41.2,132-41.2l-85.3-142.3h0Z"/>
        <path class="cls-11" d="M583,812.5h-85.1v-81.2c0-23.5,19-42.5,42.5-42.5h0c23.5,0,42.5,19,42.5,42.5v81.2h0Z"/>
        <rect class="cls-2" x="497.9" y="755.3" width="85.1" height="9.7"/>
        <rect class="cls-2" x="497.9" y="733.4" width="85.1" height="9.7"/>
        <rect class="cls-11" x="455.2" y="509.4" width="170.5" height="13.7"/>
        <rect class="cls-11" x="455.1" y="467.6" width="170.5" height="13.7"/>
        <path class="cls-9" d="M717.7,748.9c-23.7-109.7-92-153-92-153l21.4,168.7c9.4,4.8,17.9,10,25.7,15.2,21.8,14.7,50.5-5.2,44.9-30.9h0q0,0,0,0Z"/>
        <path class="cls-9" d="M363.1,748.9c23.7-109.7,92-153,92-153l-21.4,168.7c-9.4,4.8-17.9,10-25.7,15.2-21.8,14.7-50.5-5.2-44.9-30.9h0c0,0,0,0,0,0Z"/>
        <path class="cls-1" d="M540.4,810.1c3,.2,6,.3,9,.5,6.7-.2,13.4-.5,20.1-.7,4.5-.1,8.9-.3,13.4-.6v-77.9c0-14.2-7.1-26.8-17.8-34.5l60.6-101v-261.3c0-10.6-3.9-20.8-11.1-28.6l-42.6-47c-8.4-9.3-20-14-31.6-14v565.2Z"/>
        <g>
          <path class="cls-5" d="M540.4,446c-32.4,0-58.7-26.3-58.7-58.7s26.3-58.7,58.7-58.7,58.7,26.3,58.7,58.7-26.3,58.7-58.7,58.7Z"/>
          <circle class="cls-12" cx="540.3" cy="387.3" r="48"/>
          <circle class="cls-4" cx="517.8" cy="372.4" r="12.8"/>
        </g>
      </g>
    </g>
    <g id="Avatar6" class="cls-15">
      <g>
        <path class="cls-7" d="M708.2,716.6h-94.8v-224.6h12.5l93.6,207.2c3.7,8.2-2.3,17.4-11.2,17.4h0Z"/>
        <path class="cls-7" d="M425,716.6h94.8v-224.6h-12.5l-93.6,207.2c-3.7,8.2,2.3,17.4,11.2,17.4h0Z"/>
        <path class="cls-2" d="M620.8,777.1h-108.4l-12.7-241.9c-3.3-63.5,3.8-127.1,21-188.3l22-78.3c6.8-24.1,41-24.1,47.8,0l22,78.3c17.2,61.2,24.3,124.8,21,188.3l-12.7,241.9h.1Z"/>
        <g>
          <path class="cls-11" d="M634.1,500.9c0-4.4,0-8.9-.1-13.3h-134.8c-.1,4.4-.1,8.8-.1,13.3h135Z"/>
          <path class="cls-11" d="M501.6,450.2c-.4,4.4-.9,8.8-1.2,13.3h132.4c-.3-4.4-.8-8.9-1.2-13.3h-130,0Z"/>
        </g>
        <rect class="cls-5" x="530.4" y="777" width="72.4" height="21.6"/>
        <path class="cls-7" d="M578.8,798.7h-24.4v-143.3c0-6.7,5.5-12.2,12.2-12.2h0c6.7,0,12.2,5.5,12.2,12.2v143.3h0Z"/>
        <polygon class="cls-13" points="615.9 602.4 517.3 602.4 514.7 552.1 618.5 552.1 615.9 602.4"/>
        <path class="cls-1" d="M566.6,793.2c3.3.3,6.7.7,10,1,8.7.9,17.4,1.4,26.2,1.6v-18.8h18l12.7-241.9c3.3-63.5-3.8-127.1-21-188.3l-22-78.3c-3.4-12.1-13.7-18.1-23.9-18.1v542.7h0Z"/>
        <g>
          <path class="cls-5" d="M566.6,521.6c-24.7,0-44.8-20.1-44.8-44.8s20.1-44.8,44.8-44.8,44.8,20.1,44.8,44.8-20.1,44.8-44.8,44.8Z"/>
          <circle class="cls-12" cx="566.6" cy="476.8" r="36.6"/>
          <path class="cls-4" d="M559.1,465.4c0,5.4-4.4,9.8-9.8,9.8s-9.8-4.4-9.8-9.8,4.4-9.8,9.8-9.8,9.8,4.4,9.8,9.8Z"/>
        </g>
      </g>
    </g>
  </g>
</svg>