<?xml version="1.0" encoding="UTF-8"?>
<svg id="Layer_1" data-name="Layer 1" xmlns="http://www.w3.org/2000/svg" version="1.1" viewBox="0 0 800 800">
  <defs>
    <style>
      .cls-1 {
        fill: #777db1;
        stroke-width: 0px;
      }
    </style>
  </defs>
  <path class="cls-1" d="M581.8,98.9c-50.2,0-95.7,20.4-128.5,53.3l-45.2,45c-4.4,4.4-11.6,4.4-16.1,0,0,0-45.1-45.1-45.2-45-32.9-32.9-78.4-53.3-128.6-53.3-100.4,0-181.8,81.4-181.8,181.8s11.6,73.1,31.5,102.3c0,0,8.3,13.2,18.2,23.1,9.9,9.9,281.8,281.8,281.8,281.8,8.9,8.9,20.5,13.3,32.1,13.3s23.3-4.4,32.1-13.3c0,0,271.9-271.9,281.8-281.8,9.9-9.9,18.2-23.1,18.2-23.1,19.9-29.1,31.5-64.3,31.5-102.3,0-100.4-81.4-181.8-181.8-181.8ZM684.1,292.1c-6.3,0-11.4-5.1-11.4-11.4,0-50.2-40.7-90.9-90.9-90.9s-11.4-5.1-11.4-11.4,5.1-11.4,11.4-11.4c62.7,0,113.6,50.9,113.6,113.6s-5.1,11.4-11.4,11.4Z"/>
</svg>