<?xml version="1.0" encoding="UTF-8"?>
<svg id="Layer_1" data-name="Layer 1" xmlns="http://www.w3.org/2000/svg" version="1.1" viewBox="0 0 1080 1080">
  <defs>
    <style>
      .cls-1 {
        fill: #c2c0c9;
      }

      .cls-1, .cls-2, .cls-3, .cls-4, .cls-5, .cls-6, .cls-7, .cls-8, .cls-9, .cls-10, .cls-11, .cls-12, .cls-13 {
        stroke-width: 0px;
      }

      .cls-1, .cls-4, .cls-9, .cls-14 {
        isolation: isolate;
      }

      .cls-1, .cls-9 {
        mix-blend-mode: multiply;
      }

      .cls-2 {
        fill: #bfc1bf;
      }

      .cls-3 {
        fill: #777db0;
      }

      .cls-4 {
        mix-blend-mode: screen;
      }

      .cls-4, .cls-12 {
        fill: #25383f;
      }

      .cls-5 {
        fill: #3b4e57;
      }

      .cls-6 {
        fill: #838bb7;
      }

      .cls-7 {
        fill: #777db1;
      }

      .cls-8 {
        fill: #dbdddb;
      }

      .cls-9 {
        fill: #e6e7e7;
      }

      .cls-10 {
        fill: #9887af;
      }

      .cls-11 {
        fill: #627688;
      }

      .cls-15 {
        display: none;
      }

      .cls-13 {
        fill: #b0b0b0;
      }
    </style>
  </defs>
  <g class="cls-14">
    <g id="Avatar2">
      <g>
        <path class="cls-2" d="M622.3,757.4h-164.7v-227.7c0-58.7,11.6-116.9,34-171.1l27.4-66.2c7.7-18.6,34.1-18.6,41.8,0l27.4,66.2c22.5,54.2,34,112.4,34,171.1v227.7Z"/>
        <path class="cls-2" d="M789.9,705.6h-49.2v-67c0-13.6,11-24.6,24.6-24.6h0c13.6,0,24.6,11,24.6,24.6v67h0Z"/>
        <rect class="cls-11" x="457.6" y="591.3" width="164.7" height="9.4"/>
        <rect class="cls-13" x="470.5" y="614" width="139.2" height="54"/>
        <rect class="cls-5" x="478.6" y="757.4" width="122.9" height="28.6"/>
        <polygon class="cls-7" points="740.7 688.1 622.3 688.1 622.3 574 740.7 648.8 740.7 688.1"/>
        <polygon class="cls-6" points="622.3 574 622.3 591.3 740.7 666.2 740.7 648.8 622.3 574"/>
        <polygon class="cls-7" points="339.3 688.1 457.7 688.1 457.7 574 339.3 648.8 339.3 688.1"/>
        <rect class="cls-5" x="747.1" y="705.6" width="36.6" height="12"/>
        <rect class="cls-11" x="740.7" y="658.7" width="49.2" height="9.4"/>
        <rect class="cls-11" x="740.7" y="678.8" width="49.2" height="9.4"/>
        <path class="cls-2" d="M290.1,705.6h49.2v-67c0-13.6-11-24.6-24.6-24.6h0c-13.6,0-24.6,11-24.6,24.6v67h0Z"/>
        <rect class="cls-5" x="296.4" y="705.6" width="36.6" height="12"/>
        <rect class="cls-11" x="290.1" y="658.6" width="49.2" height="9.4"/>
        <rect class="cls-11" x="290.1" y="678.8" width="49.2" height="9.4"/>
        <path class="cls-1" d="M540,781.1c20.6-.9,41.6-3,61.4,3.1v-26.9h20.9v-227.7c0-58.7-11.6-116.9-34-171.1l-27.4-66.2c-3.8-9.3-12.4-14-20.9-14v502.8Z"/>
        <polygon class="cls-6" points="457.7 574 457.7 591.3 339.3 666.2 339.3 648.8 457.7 574"/>
        <g>
          <path class="cls-5" d="M540,532.3c-31,0-56.3-25.2-56.3-56.3s25.2-56.3,56.3-56.3,56.3,25.2,56.3,56.3-25.2,56.3-56.3,56.3Z"/>
          <circle class="cls-12" cx="540" cy="476" r="46.1"/>
          <path class="cls-4" d="M530.5,461.7c0,6.7-5.5,12.2-12.2,12.2s-12.2-5.5-12.2-12.2,5.5-12.2,12.2-12.2,12.2,5.5,12.2,12.2Z"/>
        </g>
      </g>
    </g>
    <g id="Avatar1" class="cls-15">
      <g>
        <rect class="cls-5" x="465.9" y="781.8" width="114.4" height="19.4" transform="translate(-8.3 5.5) rotate(-.6)"/>
        <path class="cls-8" d="M603.4,781.1l-161.1,1.6-3.3-325.1c-.7-64.3,14.7-127.7,44.7-184.6h0c14.4-27.2,53.2-27.6,68.1-.7h0c31.1,56.2,47.7,119.4,48.4,183.6l3.3,325.1h0Z"/>
        <rect class="cls-11" x="440.1" y="547.6" width="161.1" height="13" transform="translate(-5.8 5.5) rotate(-.6)"/>
        <rect class="cls-11" x="440.7" y="607.9" width="161.1" height="13" transform="translate(-6.4 5.5) rotate(-.6)"/>
        <rect class="cls-11" x="441" y="638.8" width="161.1" height="13" transform="translate(-6.7 5.5) rotate(-.6)"/>
        <path class="cls-11" d="M520.9,591.1c-20.3.2-37-16.2-37.2-36.5-.2-20.3,16.2-37.1,36.5-37.2,20.3-.2,37,16.2,37.2,36.5.2,20.3-16.2,37-36.5,37.2h0Z"/>
        <circle class="cls-10" cx="520.7" cy="554.1" r="26.8"/>
        <path class="cls-3" d="M545.3,819.2l-44.2.4,8.6-177.8c.3-6.2,5.4-11.1,11.6-11.2h0c6.2,0,11.4,4.7,11.8,10.9l12.2,177.7h0Z"/>
        <path class="cls-3" d="M601.9,629.9h0l1.9,188.8,35.3-.3-17.7-171c-1-10-9.5-17.5-19.5-17.4h0Z"/>
        <path class="cls-3" d="M440.7,631.5h0l1.9,188.8-35.3.3,14.3-171.3c.8-10,9.1-17.7,19.1-17.8h0Z"/>
        <path class="cls-1" d="M551.7,272.3h0c-7.5-13.4-20.9-20.1-34.2-20l5.6,555.5c2.2.4,4.2,1.3,5.9,2.3,9.5-8.7,19.4-17.1,30.8-23.6,8.3-4.8,15.7-2.7,20.3,2.3v-7.6l23.3-.2-3.3-325.1c-.7-64.3-17.3-127.4-48.4-183.6h0Z"/>
        <g>
          <path class="cls-5" d="M519.9,490.1c-29.7.3-54.1-23.6-54.4-53.3-.3-29.7,23.6-54.1,53.3-54.4,29.7-.3,54.1,23.6,54.4,53.3.3,29.7-23.6,54.1-53.3,54.4h0q0,0,0,0Z"/>
          <circle class="cls-12" cx="519.4" cy="436.2" r="44"/>
          <path class="cls-4" d="M510.2,422.7c0,6.5-5.1,11.8-11.6,11.8-6.5,0-11.8-5.1-11.8-11.6,0-6.5,5.1-11.8,11.6-11.8,6.5,0,11.8,5.1,11.8,11.6Z"/>
        </g>
      </g>
    </g>
    <g id="Avatar3" class="cls-15">
      <g>
        <path class="cls-2" d="M611.9,737.5h-163.8v-236.2c0-64.9,14-129.1,41.2-188.1l20.6-44.7c7.9-17.2,32.4-17.2,40.3,0l20.6,44.7c27.2,59,41.2,123.1,41.2,188.1v236.2h0Z"/>
        <g>
          <rect class="cls-11" x="448.1" y="506" width="163.8" height="9.3"/>
          <path class="cls-11" d="M449.7,465.5c-.3,3.1-.5,6.2-.8,9.3h162.1c-.2-3.1-.5-6.2-.8-9.3h-160.6Z"/>
        </g>
        <rect class="cls-11" x="448.1" y="569" width="163.8" height="9.3"/>
        <rect class="cls-13" x="456.6" y="588.3" width="146.7" height="77.8"/>
        <rect class="cls-5" x="471.8" y="737.5" width="116.4" height="26.3"/>
        <rect class="cls-5" x="508.8" y="814.5" width="42.3" height="13.2"/>
        <rect class="cls-5" x="674.2" y="733.3" width="42.3" height="13.2"/>
        <path class="cls-7" d="M557.3,814.5h-54.6l17.6-181.9c.5-5,4.7-8.8,9.7-8.8h0c5,0,9.3,3.8,9.7,8.8l17.6,181.9h0Z"/>
        <polygon class="cls-7" points="670 715.4 611.9 715.4 611.9 588.3 670 681.8 670 715.4"/>
        <path class="cls-2" d="M695.3,588.3h0c-13.9,0-25.3,11.3-25.3,25.3v119.8h50.5v-119.8c0-13.9-11.3-25.3-25.3-25.3h0Z"/>
        <rect class="cls-11" x="670.1" y="642.5" width="50.5" height="9.3"/>
        <rect class="cls-11" x="670.1" y="663.8" width="50.5" height="9.3"/>
        <rect class="cls-5" x="343.4" y="733.3" width="42.3" height="13.2"/>
        <polygon class="cls-7" points="389.9 715.4 448.1 715.4 448.1 588.3 389.9 681.8 389.9 715.4"/>
        <path class="cls-2" d="M364.6,588.3h0c13.9,0,25.3,11.3,25.3,25.3v119.8h-50.5v-119.8c0-13.9,11.3-25.3,25.3-25.3h0s0,0,0,0h0Z"/>
        <rect class="cls-11" x="339.3" y="642.5" width="50.5" height="9.3"/>
        <rect class="cls-11" x="339.3" y="663.8" width="50.5" height="9.3"/>
        <path class="cls-1" d="M530,816.7c2.6,0,5.3-.1,8-.2-.2-.2-.4-.4-.6-.6-1.3-1.2-2.5-2.4-3.8-3.6-2.5-2.5,1.3-6.3,3.9-3.9,1.4,1.3,2.7,2.5,4,3.8,1.4,1.3,2.7,2.4,4.2,3.5,1-.9,2.1-1.8,3.2-2.5,2.5-1.6,5.3-2.2,8.2-1.3l-4.7-48h35.8v-26.3h23.7v-236.2c0-64.9-14-129.1-41.2-188.1l-20.6-44.7c-3.9-8.6-12.1-12.9-20.2-12.9v561h0Z"/>
        <g>
          <path class="cls-5" d="M530,540.8c-29.1,0-52.8-23.7-52.8-52.8s23.7-52.8,52.8-52.8,52.8,23.7,52.8,52.8-23.7,52.8-52.8,52.8h0Z"/>
          <circle class="cls-12" cx="530" cy="487.9" r="43.2"/>
          <circle class="cls-4" cx="509.6" cy="474.5" r="11.5"/>
        </g>
      </g>
    </g>
    <g id="Avatar_4" data-name="Avatar 4" class="cls-15">
      <g>
        <path class="cls-2" d="M537.1,768.8h0c-43.9,0-79.5-35.6-79.5-79.5v-339.2c0-12.6,5.9-24.4,16-31.9l39.8-29.7c14.1-10.5,33.5-10.5,47.6,0l39.8,29.7c10,7.5,16,19.3,16,31.9v339.2c0,43.9-35.6,79.5-79.5,79.5h0Z"/>
        <path class="cls-11" d="M576.7,820.3h-79.4v-75.7c0-21.9,17.8-39.7,39.7-39.7h0c21.9,0,39.7,17.8,39.7,39.7v75.7h0Z"/>
        <rect class="cls-2" x="497.4" y="766.9" width="79.4" height="9.1"/>
        <rect class="cls-2" x="497.4" y="746.4" width="79.4" height="9.1"/>
        <rect class="cls-11" x="457.6" y="575.7" width="159.1" height="9.1"/>
        <rect class="cls-13" x="468" y="602" width="138.2" height="32.4"/>
        <rect class="cls-11" x="457.6" y="543.4" width="159.1" height="9.1"/>
        <rect class="cls-11" x="457.5" y="430.2" width="159.1" height="9.1"/>
        <polygon class="cls-7" points="698.9 789.8 616.6 789.8 616.6 395.6 698.9 789.8"/>
        <rect class="cls-5" x="629.3" y="789.8" width="56.9" height="16.6"/>
        <polygon class="cls-7" points="375.3 789.8 457.5 789.8 457.5 395.6 375.3 789.8"/>
        <rect class="cls-5" x="388" y="789.8" width="56.9" height="16.6"/>
        <path class="cls-1" d="M537.1,819.4h6c.4-.3,1-.5,1.6-.5,10.6,0,21.3-1,32-.7v-60c23.8-13.8,39.9-39.4,39.9-68.9v-339.2c0-12.6-5.9-24.4-16-31.9l-39.8-29.7c-7.1-5.3-15.4-7.9-23.7-7.9v538.8Z"/>
        <g>
          <path class="cls-5" d="M537.1,490.2c-30.6,0-55.5-24.9-55.5-55.5s24.9-55.5,55.5-55.5,55.5,24.9,55.5,55.5-24.9,55.5-55.5,55.5Z"/>
          <circle class="cls-12" cx="537.3" cy="434.4" r="45.4"/>
          <path class="cls-4" d="M527.7,420.6c0,6.7-5.4,12.1-12.1,12.1s-12.1-5.4-12.1-12.1,5.4-12.1,12.1-12.1,12.1,5.4,12.1,12.1Z"/>
        </g>
      </g>
    </g>
    <g id="Avatar_5" data-name="Avatar 5" class="cls-15">
      <g>
        <path class="cls-2" d="M620.9,606.1l-85.3,142.3-85.3-142.3v-261.3c0-10.6,3.9-20.8,11.1-28.6l42.6-47c16.9-18.6,46.2-18.6,63.1,0l42.6,47c7.1,7.8,11.1,18,11.1,28.6v261.3h0Z"/>
        <path class="cls-7" d="M548.2,742.5h-25.2v-148c0-7,5.6-12.6,12.6-12.6h0c7,0,12.6,5.6,12.6,12.6v148h0Z"/>
        <path class="cls-7" d="M620.9,606.1s68.2,43.3,92,152.9c5.6,25.9-23.3,45.4-45.3,30.6-31.4-21.1-76-41.2-132-41.2l85.3-142.3h0Z"/>
        <path class="cls-7" d="M450.4,606.1s-68.2,43.3-92,152.9c-5.6,25.9,23.3,45.4,45.3,30.6,31.4-21.1,76-41.2,132-41.2l-85.3-142.3h0Z"/>
        <path class="cls-11" d="M578.2,822.8h-85.1v-81.2c0-23.5,19-42.5,42.5-42.5h0c23.5,0,42.5,19,42.5,42.5v81.2h0Z"/>
        <rect class="cls-2" x="493.1" y="765.6" width="85.1" height="9.7"/>
        <rect class="cls-2" x="493.1" y="743.7" width="85.1" height="9.7"/>
        <rect class="cls-11" x="450.4" y="519.7" width="170.5" height="13.7"/>
        <rect class="cls-11" x="450.3" y="477.9" width="170.5" height="13.7"/>
        <path class="cls-9" d="M712.9,759.2c-23.7-109.7-92-153-92-153l21.4,168.7c9.4,4.8,17.9,10,25.7,15.2,21.8,14.7,50.5-5.2,44.9-30.9h0Z"/>
        <path class="cls-9" d="M358.3,759.2c23.7-109.7,92-153,92-153l-21.4,168.7c-9.4,4.8-17.9,10-25.7,15.2-21.8,14.7-50.5-5.2-44.9-30.9h0Z"/>
        <path class="cls-1" d="M535.6,820.4c3,.2,6,.3,9,.5,6.7-.2,13.4-.5,20.1-.7,4.5-.1,8.9-.3,13.4-.6v-77.9c0-14.2-7.1-26.8-17.8-34.5l60.6-101v-261.3c0-10.6-3.9-20.8-11.1-28.6l-42.6-47c-8.4-9.3-20-14-31.6-14v565.2Z"/>
        <g>
          <path class="cls-5" d="M535.6,456.3c-32.4,0-58.7-26.3-58.7-58.7s26.3-58.7,58.7-58.7,58.7,26.3,58.7,58.7-26.3,58.7-58.7,58.7Z"/>
          <circle class="cls-12" cx="535.5" cy="397.6" r="48"/>
          <circle class="cls-4" cx="513" cy="382.7" r="12.8"/>
        </g>
      </g>
    </g>
    <g id="Avatar6" class="cls-15">
      <g>
        <path class="cls-7" d="M703.4,726.9h-94.8v-224.6h12.5l93.6,207.2c3.7,8.2-2.3,17.4-11.2,17.4h0Z"/>
        <path class="cls-7" d="M420.2,726.9h94.8v-224.6h-12.5l-93.6,207.2c-3.7,8.2,2.3,17.4,11.2,17.4h0Z"/>
        <path class="cls-2" d="M616,787.4h-108.4l-12.7-241.9c-3.3-63.5,3.8-127.1,21-188.3l22-78.3c6.8-24.1,41-24.1,47.8,0l22,78.3c17.2,61.2,24.3,124.8,21,188.3l-12.7,241.9h.1Z"/>
        <g>
          <path class="cls-11" d="M629.3,511.2c0-4.4,0-8.9-.1-13.3h-134.8c-.1,4.4-.1,8.8-.1,13.3h135Z"/>
          <path class="cls-11" d="M496.8,460.5c-.4,4.4-.9,8.8-1.2,13.3h132.4c-.3-4.4-.8-8.9-1.2-13.3h-130Z"/>
        </g>
        <rect class="cls-5" x="525.6" y="787.3" width="72.4" height="21.6"/>
        <path class="cls-7" d="M574,809h-24.4v-143.3c0-6.7,5.5-12.2,12.2-12.2h0c6.7,0,12.2,5.5,12.2,12.2v143.3h0Z"/>
        <polygon class="cls-13" points="611.1 612.7 512.5 612.7 509.9 562.4 613.7 562.4 611.1 612.7"/>
        <path class="cls-1" d="M561.8,803.5c3.3.3,6.7.7,10,1,8.7.9,17.4,1.4,26.2,1.6v-18.8h18l12.7-241.9c3.3-63.5-3.8-127.1-21-188.3l-22-78.3c-3.4-12.1-13.7-18.1-23.9-18.1v542.7h0Z"/>
        <g>
          <path class="cls-5" d="M561.8,531.9c-24.7,0-44.8-20.1-44.8-44.8s20.1-44.8,44.8-44.8,44.8,20.1,44.8,44.8-20.1,44.8-44.8,44.8Z"/>
          <circle class="cls-12" cx="561.8" cy="487.1" r="36.6"/>
          <path class="cls-4" d="M554.3,475.7c0,5.4-4.4,9.8-9.8,9.8s-9.8-4.4-9.8-9.8,4.4-9.8,9.8-9.8,9.8,4.4,9.8,9.8Z"/>
        </g>
      </g>
    </g>
  </g>
</svg>